<?xml version="1.0" standalone="no"?>
<!DOCTYPE svg PUBLIC "-//W3C//DTD SVG 20010904//EN"
 "http://www.w3.org/TR/2001/REC-SVG-20010904/DTD/svg10.dtd">
<svg version="1.0" xmlns="http://www.w3.org/2000/svg"
 width="300.000000pt" height="300.000000pt" viewBox="0 0 300.000000 300.000000"
 preserveAspectRatio="xMidYMid meet">
<metadata>
Created by potrace 1.10, written by Peter Selinger 2001-2011
</metadata>
<g transform="translate(0.000000,300.000000) scale(0.100000,-0.100000)"
fill="#000000" stroke="none">
<path d="M912 2969 c-18 -16 -37 -27 -41 -25 -4 3 -19 -6 -31 -19 -18 -19 -34
-25 -66 -25 -24 0 -46 5 -49 10 -3 6 -22 10 -40 10 -27 0 -42 8 -69 37 l-33
37 -33 -37 c-34 -39 -69 -48 -90 -22 -13 16 -40 20 -40 7 0 -11 38 -30 70 -35
14 -2 -28 -5 -93 -6 -94 -1 -119 -4 -123 -16 -9 -23 -40 -18 -58 10 -23 35
-58 47 -96 34 -36 -13 -50 -35 -50 -79 0 -30 37 -80 60 -80 5 0 10 -20 10 -44
0 -33 -5 -47 -21 -57 -20 -14 -21 -22 -19 -201 l1 -187 -41 -39 c-26 -26 -40
-49 -40 -65 0 -14 -6 -27 -12 -30 -7 -2 -10 -8 -6 -12 14 -15 38 5 38 33 0 19
12 40 40 67 l40 39 0 172 c0 147 2 173 16 178 10 4 13 13 9 26 -4 11 -2 20 4
20 6 0 11 21 11 50 0 38 4 52 19 60 16 8 24 4 48 -28 40 -51 89 -132 98 -160
3 -12 1 -47 -5 -77 l-11 -55 -56 54 c-61 58 -62 61 -50 176 l6 65 -17 -80 c-9
-44 -25 -91 -34 -105 -15 -20 -18 -47 -18 -159 0 -126 -1 -136 -22 -159 -22
-22 -23 -34 -25 -174 -2 -83 -5 -154 -8 -156 -3 -3 -5 -32 -5 -64 0 -45 -4
-62 -19 -75 -19 -15 -19 -17 -3 -29 16 -11 17 -40 13 -330 -2 -198 -7 -324
-14 -335 -14 -23 -2 -49 23 -49 24 0 35 22 25 47 -4 10 -9 156 -11 326 -4 284
-1 332 21 297 3 -5 5 -144 5 -310 0 -170 4 -299 9 -296 5 3 8 89 7 191 l-1
184 53 -51 c55 -55 61 -64 38 -55 -21 8 -43 -20 -28 -35 7 -7 12 -46 12 -98 0
-74 -3 -90 -20 -105 -19 -17 -20 -31 -20 -376 0 -228 4 -360 10 -364 14 -9 13
-168 -1 -163 -7 2 -11 32 -12 76 0 48 -5 76 -14 83 -10 9 -13 67 -13 277 l0
266 -32 33 c-29 30 -32 31 -44 15 -10 -14 -9 -21 7 -38 19 -21 20 -35 19 -281
l-1 -259 31 -29 c26 -25 30 -36 30 -82 0 -51 -2 -55 -30 -65 -68 -23 -69 -119
-2 -147 34 -14 75 -2 94 29 7 11 23 20 35 20 22 0 23 -4 23 -65 0 -37 4 -65
10 -65 6 0 10 28 10 65 l0 65 40 0 40 0 0 -65 c0 -39 4 -65 10 -65 7 0 10 25
8 67 l-3 68 -77 3 c-60 2 -78 6 -78 17 0 12 17 14 90 12 l90 -2 0 -82 c0 -49
4 -83 10 -83 6 0 10 35 10 85 0 69 3 85 15 85 8 0 15 -9 15 -19 0 -11 4 -23
10 -26 5 -3 11 -34 12 -68 l2 -62 3 59 c2 33 11 68 19 80 13 19 14 13 14 -57
0 -45 4 -77 10 -77 6 0 10 31 10 74 0 102 -6 106 -187 106 -138 0 -138 0 -113
20 17 12 28 15 36 9 7 -6 60 -9 119 -8 85 1 109 -2 124 -15 10 -9 25 -16 34
-16 15 0 17 -12 17 -85 0 -50 4 -85 10 -85 6 0 10 35 10 85 0 83 1 85 24 85
16 0 23 -5 22 -16 0 -9 7 -21 16 -27 14 -9 21 -8 34 5 20 20 12 45 -18 57 -13
5 -31 18 -41 28 -17 20 -16 20 85 15 102 -4 103 -4 141 -41 47 -44 68 -43 122
10 l41 39 140 0 141 0 76 -79 c71 -72 77 -82 79 -122 l1 -44 4 38 c4 32 7 36
19 26 8 -6 15 -23 15 -38 1 -17 3 -20 6 -8 4 14 17 17 86 17 l81 0 108 109
107 109 426 -5 c297 -3 425 -1 425 6 0 8 -85 11 -267 11 -265 1 -268 1 -228
18 25 12 35 21 27 26 -6 4 -17 17 -23 29 -6 14 3 8 25 -15 l36 -38 215 0 215
0 0 268 0 268 50 49 51 50 -3 543 -2 543 22 19 c12 11 17 15 12 8 -6 -7 -10
-95 -10 -213 l0 -201 30 -29 c30 -29 30 -29 30 -145 0 -116 0 -116 -30 -145
l-30 -29 0 -204 0 -204 -45 -50 -45 -50 0 -269 0 -269 -438 0 -437 0 -105
-105 -104 -104 -75 -4 -76 -3 83 -2 82 -2 98 100 97 100 440 0 c242 0 446 0
453 0 6 0 12 -4 12 -10 0 -6 -74 -10 -203 -10 -191 0 -205 -1 -222 -20 -16
-18 -31 -20 -145 -20 -85 0 -130 -4 -138 -12 -7 -7 -12 -8 -12 -2 0 6 8 18 18
27 14 13 45 17 142 20 l125 3 -131 2 -130 2 -32 -33 c-28 -29 -32 -39 -32 -90
0 -31 5 -57 10 -57 6 0 10 16 10 36 0 27 7 42 32 65 32 29 33 29 160 29 76 0
128 4 128 10 0 5 10 15 23 21 19 10 17 7 -7 -20 -25 -26 -37 -31 -75 -31 -40
0 -52 -6 -88 -40 -48 -44 -50 -73 -4 -68 22 3 26 8 24 32 -3 42 31 67 80 59
34 -5 41 -2 76 34 l38 41 171 1 c149 2 172 0 172 -14 0 -13 -24 -15 -175 -15
-119 0 -175 -3 -175 -11 0 -7 55 -10 178 -7 167 3 178 2 194 -17 16 -19 15
-21 -4 -41 -12 -14 -16 -24 -9 -28 5 -4 17 4 26 17 11 17 22 23 38 20 15 -3
35 5 55 22 39 32 44 83 12 115 -19 19 -20 33 -20 270 0 214 2 251 15 256 19 8
19 43 0 50 -8 4 -26 -4 -40 -17 l-25 -24 0 -257 c0 -223 -2 -258 -15 -258 -13
0 -15 35 -15 253 l0 253 45 37 45 38 0 211 c0 183 2 214 17 230 22 25 8 36
-17 13 -19 -17 -20 -31 -20 -229 l0 -212 -45 -44 -46 -45 3 -262 c2 -145 1
-263 -2 -263 -26 0 -30 35 -30 278 l0 253 50 53 50 53 0 205 0 204 30 29 30
29 0 126 0 126 -30 29 -31 30 2 211 1 212 29 28 29 28 0 157 c0 127 -3 159
-15 169 -10 9 -15 9 -15 1 0 -6 -4 -11 -10 -11 -6 0 -10 37 -10 91 0 73 -4 96
-19 117 -20 29 -41 93 -41 128 0 17 5 20 30 16 26 -4 28 -7 24 -31 -4 -18 0
-32 10 -40 13 -11 16 -35 16 -122 l0 -109 40 -44 40 -43 0 -144 0 -145 -50
-49 -50 -49 0 -181 0 -181 30 -29 c17 -16 30 -24 30 -18 0 5 -9 18 -20 28 -19
17 -20 31 -20 199 l0 181 45 44 45 44 0 161 0 162 -35 34 -35 34 0 112 c0 87
-3 114 -15 124 -23 19 -18 56 10 84 51 52 16 140 -55 138 -20 0 -33 6 -40 19
-6 10 -18 19 -27 19 -14 0 -13 -4 4 -22 l21 -23 -24 -30 c-21 -26 -26 -28 -44
-17 -11 6 -42 12 -70 12 -41 0 -55 5 -85 31 -21 19 -66 41 -110 55 -74 23 -76
24 -150 7 -41 -9 -75 -20 -75 -24 0 -10 78 -73 105 -85 14 -6 -16 -10 -94 -12
l-114 -3 -37 36 c-24 23 -45 35 -64 35 -16 0 -44 10 -63 21 -27 17 -45 20 -86
17 -57 -6 -167 -44 -167 -58 0 -5 12 -16 26 -23 17 -9 23 -17 15 -21 -6 -4
-11 -2 -11 3 0 14 -67 14 -75 1 -10 -16 -61 -12 -76 6 -10 13 -25 15 -66 11
-29 -3 -53 -2 -53 3 0 5 21 10 48 12 40 3 47 6 50 26 2 12 8 22 13 22 5 0 9
11 9 25 0 21 -5 25 -30 25 -23 0 -30 -5 -30 -19 0 -11 5 -23 10 -26 6 -3 10
-13 10 -21 0 -10 -12 -14 -40 -14 -27 0 -43 -6 -51 -17 -10 -16 -30 -18 -225
-15 -149 3 -214 0 -214 -7 0 -8 71 -11 231 -11 180 0 230 -3 227 -12 -4 -10
-64 -14 -247 -16 l-242 -2 -33 25 c-44 33 -76 32 -111 -5 -23 -24 -37 -30 -71
-30 -24 0 -47 6 -54 15 -10 12 -5 13 37 9 43 -5 51 -3 72 20 32 35 103 37 138
4 13 -12 26 -18 30 -14 4 4 -6 18 -22 31 -23 18 -42 24 -80 25 l-50 0 35 22
c19 12 44 21 56 19 22 -2 52 25 40 36 -3 4 -13 -2 -21 -13 -14 -17 -16 -18
-28 -3 -11 15 -16 14 -45 -12z m1585 -10 c32 -12 65 -28 73 -36 16 -16 1 -15
-114 8 -27 5 -51 8 -53 5 -7 -7 58 -25 117 -32 l55 -7 -55 -14 c-30 -8 -65
-16 -76 -19 -24 -7 -59 9 -124 57 l-45 33 45 12 c68 18 113 16 177 -7z m-1890
-11 c29 -27 29 -55 1 -85 -28 -30 -40 -29 -32 3 5 19 4 25 -5 20 -6 -4 -11
-15 -11 -24 -1 -15 -2 -15 -15 2 -21 27 -19 49 8 79 27 32 26 32 54 5z m1392
-19 c24 -17 41 -32 39 -34 -2 -2 -30 2 -61 9 -31 7 -57 10 -57 6 0 -9 78 -30
109 -30 32 0 25 -14 -14 -33 -56 -27 -114 -22 -185 16 -34 18 -62 37 -62 42 0
13 119 54 158 55 19 0 47 -12 73 -31z m-1129 -16 c0 -3 -7 -15 -17 -25 -17
-19 -103 -26 -103 -8 0 6 17 10 39 10 22 0 44 6 51 15 13 15 30 20 30 8z
m1236 -34 l42 -41 104 -1 c56 0 130 5 163 11 141 25 154 26 175 7 11 -10 18
-21 15 -25 -2 -3 -54 -4 -115 -2 -95 4 -113 2 -130 -13 -15 -14 -34 -16 -103
-14 l-84 4 -59 49 c-32 27 -63 53 -68 58 -6 5 -4 8 4 8 8 0 33 -19 56 -41z
m-1378 9 c19 -19 14 -33 -5 -15 -10 8 -34 17 -53 20 -35 4 -35 4 6 5 22 1 45
-3 52 -10z m-548 -13 c15 -18 10 -45 -12 -59 -33 -20 -69 20 -54 60 7 18 50
18 66 -1z m2435 5 c3 -5 30 -10 60 -10 30 0 57 -4 60 -10 3 -5 15 -10 26 -10
11 0 19 -7 19 -16 0 -15 -9 -16 -65 -11 -63 6 -125 35 -125 58 0 12 17 12 25
-1z m279 -12 c23 -37 -36 -77 -63 -44 -8 10 -11 26 -7 42 5 20 12 25 33 22 14
-2 31 -11 37 -20z m-2355 -12 c35 -37 16 -54 -21 -19 -27 26 -37 28 -131 34
l-102 6 116 1 c110 2 117 1 138 -22z m191 -11 c19 -20 33 -25 73 -25 38 0 58
6 83 25 36 28 66 32 82 12 9 -10 1 -18 -35 -36 -43 -21 -60 -23 -202 -22 -85
1 -157 4 -160 7 -3 2 11 18 30 34 45 38 96 40 129 5z m890 10 c15 -18 140 -21
170 -5 14 8 28 5 55 -11 24 -15 54 -22 91 -23 29 0 50 -3 46 -6 -50 -43 -63
-47 -140 -49 -67 -2 -81 1 -97 19 -13 15 -30 20 -64 20 -40 0 -51 -5 -85 -40
l-40 -40 -226 0 c-214 0 -228 -1 -245 -20 -10 -11 -23 -20 -28 -20 -6 0 -2 9
8 20 21 23 13 39 -10 20 -8 -7 -23 -9 -32 -5 -14 5 -9 10 22 21 31 11 96 14
288 14 161 0 247 3 247 10 0 6 -76 8 -230 3 -215 -6 -230 -5 -224 11 6 15 23
17 160 14 85 -2 154 0 154 5 0 4 -78 7 -173 7 -139 0 -177 3 -193 15 -17 14 4
15 205 14 218 -2 225 -1 240 19 19 26 82 30 101 7z m482 -12 c10 -9 18 -22 18
-28 0 -26 218 -37 248 -13 21 18 24 3 3 -16 -29 -26 -83 -36 -112 -20 -36 20
-47 16 -19 -6 l25 -20 -25 0 c-14 0 -43 -9 -63 -19 -31 -16 -44 -17 -75 -9
-20 6 -38 11 -40 13 -5 4 21 59 36 78 14 16 11 17 -44 17 l-59 0 30 19 c38 24
54 25 77 4z m-1594 -16 c12 -13 20 -26 17 -29 -4 -3 8 -16 25 -28 29 -20 41
-22 167 -21 107 2 134 -1 131 -11 -5 -14 -208 -25 -237 -12 -21 9 -88 5 -118
-7 -19 -7 -32 -4 -61 16 -20 14 -48 25 -62 25 -14 1 -50 7 -80 14 -40 10 -50
16 -37 21 9 4 30 5 45 2 15 -3 56 3 93 13 58 16 68 16 93 3 15 -8 30 -12 33
-10 3 3 -9 13 -26 21 -24 13 -39 14 -73 6 -24 -5 -71 -10 -104 -10 -42 0 -65
-5 -74 -15 -18 -22 -31 -8 -18 20 11 25 13 25 138 25 119 0 128 -1 148 -23z
m562 -22 l45 -23 -45 -21 c-25 -11 -53 -21 -63 -21 -19 0 -97 41 -97 51 0 10
65 38 90 38 14 0 45 -11 70 -24z m1664 5 c60 -1 61 -1 38 -18 -12 -9 -52 -41
-89 -69 -69 -54 -84 -59 -185 -66 l-58 -4 27 36 c71 97 124 135 177 126 16 -3
56 -5 90 -5z m-668 -22 c-3 -28 -32 -84 -48 -94 -17 -11 -138 -43 -138 -37 0
3 12 26 26 52 32 58 87 101 130 101 28 0 32 -3 30 -22z m-1348 -10 l127 -2
-130 -5 c-137 -6 -155 -5 -155 11 0 6 7 7 16 4 9 -3 73 -7 142 -8z m1797 -8
c-19 -21 -79 -28 -90 -10 -9 15 -93 -59 -105 -94 -8 -23 -7 -41 6 -78 8 -26
20 -50 25 -53 13 -8 11 -52 -3 -74 -16 -26 -3 -53 24 -49 17 2 24 11 26 31 2
15 -1 27 -7 27 -6 0 -11 11 -11 25 0 23 3 25 50 25 28 0 50 -4 50 -10 0 -5
-20 -10 -45 -10 -25 0 -45 -4 -45 -10 0 -6 33 -10 80 -10 66 0 90 4 130 25 28
14 50 22 50 17 0 -17 -46 -50 -102 -72 -82 -33 -97 -53 -111 -146 -11 -71 -14
-79 -33 -76 -31 4 -48 -21 -34 -48 14 -25 41 -23 54 5 5 11 43 36 84 56 l74
36 11 -26 c16 -37 58 -101 66 -101 9 0 43 71 37 77 -2 3 -12 -10 -21 -28 l-17
-32 -34 59 c-19 32 -34 73 -34 90 0 44 27 128 50 156 l20 23 -7 -72 c-3 -39
-2 -80 3 -90 8 -17 13 24 29 214 6 77 9 85 70 166 l50 67 6 -42 c24 -159 26
-144 -17 -185 -22 -21 -57 -52 -79 -70 l-40 -31 28 -50 c30 -55 34 -94 13
-131 -8 -14 -12 -40 -9 -61 5 -34 2 -39 -33 -61 -33 -20 -52 -24 -124 -25
-110 0 -98 3 -170 -54 -34 -27 -67 -50 -72 -50 -5 0 -6 -4 -3 -10 3 -5 28 -12
56 -16 27 -4 51 -9 53 -13 7 -10 -52 -71 -69 -71 -23 0 -37 -34 -21 -55 19
-27 50 -15 54 20 5 42 30 68 59 60 13 -3 47 -3 75 1 59 8 100 39 148 114 18
28 36 50 41 50 5 0 9 -15 9 -32 0 -28 -12 -44 -74 -103 -84 -80 -96 -99 -96
-153 0 -44 -25 -74 -55 -66 -28 7 -55 -16 -71 -61 -7 -22 -12 -40 -11 -41 1
-1 21 -5 44 -9 35 -5 45 -3 63 15 17 17 21 29 16 55 -5 24 -3 34 9 39 12 4 15
-4 15 -44 0 -59 11 -63 57 -18 l33 32 0 -107 0 -107 -35 0 c-26 0 -39 -6 -51
-26 -9 -14 -22 -23 -29 -20 -28 10 -47 -38 -23 -62 16 -16 48 3 48 30 0 30 28
58 60 58 45 0 50 15 50 141 0 68 4 120 10 124 6 4 10 -32 10 -102 0 -91 3
-113 20 -138 18 -27 20 -47 20 -185 l0 -156 -70 -69 -71 -70 4 -73 3 -73 -48
-47 -48 -47 0 -98 c0 -63 -4 -96 -10 -92 -6 3 -10 49 -10 103 l0 97 40 39 40
40 0 98 c0 54 4 98 9 98 5 0 11 7 15 15 12 32 -17 61 -49 49 -17 -7 -20 -49
-5 -59 6 -3 10 -49 10 -104 l0 -97 -40 -39 -40 -39 0 -95 c0 -82 -2 -93 -14
-81 -18 20 -34 494 -17 504 33 21 -6 73 -41 55 -22 -12 -24 -45 -4 -56 12 -7
16 -58 21 -273 5 -176 4 -273 -3 -290 -8 -19 -11 17 -11 145 l-1 171 -40 39
c-23 23 -40 48 -40 62 0 29 -35 49 -56 32 -20 -17 -13 -53 11 -57 11 -2 42
-25 68 -50 l48 -47 -2 -173 -1 -173 33 -35 c18 -19 38 -34 44 -34 6 0 29 -16
51 -35 l39 -35 -105 0 -104 0 -43 42 -43 42 0 91 0 91 -51 49 -50 50 3 70 c3
69 3 70 -22 70 -30 0 -40 -35 -15 -55 9 -7 15 -29 15 -54 0 -37 6 -48 50 -91
l50 -49 0 -76 0 -75 -88 5 c-113 6 -122 14 -122 94 0 61 -1 63 -50 111 -27 26
-47 52 -45 56 3 4 2 14 -1 23 -8 21 -53 21 -61 0 -8 -21 9 -49 30 -49 9 0 37
-20 62 -45 42 -42 45 -47 45 -100 1 -43 6 -61 24 -82 23 -25 31 -27 113 -30
79 -3 88 -5 91 -23 2 -11 25 -41 50 -68 l46 -47 188 0 188 0 2 232 c2 143 7
233 13 235 7 2 9 -82 7 -242 l-3 -245 -200 0 -201 0 -61 55 -60 55 -97 0 c-53
0 -101 5 -106 10 -13 13 -40 4 -48 -16 -15 -38 34 -62 58 -28 9 11 24 14 56
12 l45 -4 -43 -8 c-57 -11 -53 -31 16 -76 l54 -35 -130 -3 -130 -3 -100 -104
-100 -105 -78 0 -79 0 -100 100 -100 100 -150 0 -151 0 -32 -30 c-62 -56 -69
-57 -116 -11 -42 41 -42 41 -121 42 -88 1 -63 16 31 18 45 1 54 -3 84 -34 19
-19 42 -35 52 -35 11 0 41 20 67 45 l48 45 146 0 145 0 103 -110 102 -110 70
0 71 0 104 110 c98 104 106 110 143 110 21 0 39 -5 39 -11 0 -6 10 -9 23 -7
14 2 22 10 22 23 0 18 -8 21 -75 25 l-75 6 -97 -93 c-53 -51 -100 -93 -104
-93 -5 0 42 51 104 113 105 106 112 115 112 152 0 28 6 46 20 58 11 9 20 20
20 24 -1 20 -20 34 -41 31 -23 -3 -24 -6 -20 -71 l3 -68 -44 -47 -45 -48 -36
42 c-34 39 -37 47 -37 106 0 35 5 69 11 75 6 6 9 21 7 34 -4 34 -52 34 -56 0
-2 -13 1 -28 7 -34 6 -6 11 -42 11 -79 0 -66 2 -70 39 -111 31 -33 37 -46 30
-60 -15 -26 -26 -20 -22 11 4 22 -6 37 -59 89 -53 52 -69 62 -103 65 -32 2
-42 8 -53 31 -11 22 -19 28 -40 25 -17 -2 -28 -10 -31 -22 -4 -24 23 -46 48
-39 10 3 22 0 25 -6 4 -6 25 -11 46 -11 34 0 46 -7 94 -56 48 -47 56 -61 56
-93 0 -28 -7 -44 -30 -66 -28 -27 -30 -27 -55 -11 -15 10 -35 37 -45 62 -21
49 -49 66 -127 79 -49 8 -51 4 -28 -60 8 -21 13 -41 11 -43 -2 -2 -23 20 -47
47 -44 51 -44 51 -103 51 l-59 0 21 23 c20 21 22 34 22 129 0 97 2 106 20 111
34 9 19 67 -17 67 -16 0 -36 -37 -27 -51 3 -6 6 -59 5 -117 -3 -138 -6 -142
-113 -142 -69 0 -82 -3 -101 -22 -13 -13 -41 -40 -64 -61 l-41 -39 -39 36
c-35 31 -46 36 -99 37 -40 1 -86 -7 -144 -26 -67 -21 -112 -28 -212 -32 -85
-4 -128 -2 -128 5 0 5 16 24 35 41 40 35 57 32 128 -16 20 -14 40 -24 43 -21
3 3 -22 24 -55 46 -43 29 -56 42 -45 46 27 10 97 6 139 -9 56 -20 57 -9 0 16
-36 16 -61 20 -102 17 -29 -3 -50 -2 -46 2 64 53 99 73 138 78 26 2 51 0 58
-6 19 -16 75 1 128 40 24 18 60 40 79 49 l35 17 -49 14 -49 14 29 12 c16 7 44
35 63 62 19 28 37 50 40 50 4 0 11 10 16 22 6 14 22 25 40 28 23 4 30 10 30
29 0 32 -28 49 -49 32 -9 -8 -16 -20 -16 -29 0 -35 -29 -51 -84 -45 -58 6
-104 -11 -130 -49 -15 -21 -16 -18 -16 57 0 69 3 82 20 93 24 15 26 35 4 53
-11 9 -20 10 -32 2 -14 -8 -16 -26 -14 -119 4 -107 3 -109 -23 -134 l-26 -25
10 28 c6 15 9 27 7 27 -2 0 -21 -6 -43 -14 l-40 -14 8 36 c11 46 12 192 2 192
-5 0 -39 -16 -76 -35 -38 -19 -70 -35 -73 -35 -15 0 2 25 41 61 39 36 45 47
45 82 0 31 7 48 27 69 15 15 34 28 44 28 27 0 42 25 29 49 -6 12 -16 21 -23
21 -18 0 -37 -21 -37 -40 0 -9 -13 -29 -30 -45 -24 -23 -30 -37 -30 -69 0 -33
-7 -47 -37 -78 l-37 -38 -28 27 -28 27 0 260 0 260 -42 43 c-23 23 -39 46 -35
50 4 4 26 -11 48 -34 l41 -40 -1 -263 c-1 -221 1 -267 14 -287 9 -12 21 -23
27 -23 6 0 4 8 -5 18 -14 15 -17 42 -17 153 l0 134 82 82 c63 63 89 83 110 83
15 0 30 -4 33 -10 10 -16 61 -11 77 8 9 9 23 31 31 48 l16 31 -50 11 c-61 14
-83 5 -100 -42 -8 -22 -17 -32 -26 -29 -8 3 -27 -7 -44 -23 l-29 -28 0 92 c0
85 2 92 23 103 39 21 45 39 21 63 -23 23 -58 3 -51 -30 2 -14 0 -27 -4 -30 -5
-3 -9 -53 -9 -111 l0 -106 -40 -43 -40 -44 0 126 0 126 -42 44 c-26 27 -48 42
-57 39 -8 -3 -27 7 -43 22 -26 25 -28 33 -28 99 0 41 5 76 11 80 6 3 19 20 30
38 17 28 19 29 19 8 0 -12 -6 -31 -12 -42 -10 -16 -10 -23 4 -36 32 -32 75 11
44 45 -13 15 -16 46 -16 201 l0 184 31 -49 31 -49 20 39 c37 70 59 148 52 180
-6 27 -5 28 10 16 13 -11 16 -35 16 -137 0 -77 -4 -131 -12 -143 -16 -26 -3
-53 23 -49 34 5 47 33 26 56 -14 15 -17 40 -17 145 0 78 -4 127 -10 127 -20 0
-9 19 12 22 20 3 23 8 20 38 -2 19 -12 42 -23 52 -16 13 -19 29 -19 92 0 72 1
76 23 76 44 0 49 -11 36 -89 -13 -89 -8 -122 33 -186 29 -46 32 -48 38 -26 l5
24 33 -28 c27 -22 32 -34 32 -69 0 -30 6 -48 19 -60 11 -10 21 -30 23 -45 2
-20 8 -26 28 -26 31 0 42 41 13 52 -10 3 -28 15 -40 26 -27 24 -32 77 -8 77
10 0 15 10 15 33 0 66 8 77 55 77 30 0 45 -5 49 -16 10 -26 50 -13 54 17 3 29
-23 48 -42 29 -5 -5 -32 -10 -58 -10 -47 0 -48 1 -48 30 0 43 -22 82 -65 114
-20 16 -34 31 -30 34 3 3 31 -20 63 -51 58 -57 58 -57 119 -57 34 0 65 -4 68
-10 10 -17 44 -11 55 9 7 15 6 23 -6 35 -19 20 -28 20 -44 1 -8 -10 -31 -15
-69 -15 -55 0 -58 1 -111 55 -40 40 -62 55 -82 55 -18 0 -28 5 -28 14 0 8 -3
21 -6 30 -5 14 16 16 202 16 195 0 209 -1 229 -20 12 -11 38 -22 57 -23 38 -3
84 -40 90 -71 5 -28 33 -43 52 -27 22 19 20 48 -4 56 -11 3 -24 4 -28 1 -5 -3
-23 10 -41 28 -24 24 -38 32 -56 28 -26 -5 -83 33 -84 56 -1 17 5 15 37 -8 15
-11 51 -23 80 -27 l53 -6 -7 29 c-4 16 -12 43 -19 61 -12 27 -11 33 4 47 15
14 52 16 243 16 l225 0 42 40 c34 32 49 40 80 40 20 0 46 -7 57 -15 13 -10 44
-14 97 -15 44 0 77 -4 77 -10 0 -17 -155 -13 -170 5 -7 9 -29 15 -54 15 -39 0
-47 -6 -131 -90 l-90 -90 -60 0 c-35 0 -66 -5 -74 -12 -6 -7 -24 -13 -39 -13
-21 0 -28 -5 -30 -24 -2 -13 1 -28 6 -33 12 -12 52 -1 52 14 0 31 34 48 94 48
l61 0 95 95 c101 102 129 114 165 75 15 -16 31 -20 87 -20 37 0 68 -4 68 -9 0
-5 -14 -22 -30 -38 -22 -21 -38 -29 -54 -26 -13 3 -27 0 -30 -6 -9 -15 -51
-14 -75 1 -25 15 -53 -6 -49 -36 4 -26 40 -33 58 -11 14 17 60 21 60 5 0 -5
12 -10 26 -10 17 0 28 6 31 20 7 26 19 25 60 -6 l34 -25 -32 -40 c-26 -33 -34
-38 -46 -27 -12 9 -19 9 -35 -1 -15 -9 -55 -12 -142 -10 l-121 4 -3 -27 c-4
-37 36 -51 56 -19 13 19 24 21 108 21 56 0 94 -4 94 -10 0 -12 32 -13 46 -2 5
4 36 3 69 -3 56 -9 60 -12 57 -34 l-4 -25 29 19 c15 10 37 24 48 32 29 20 35
16 35 -19 0 -18 11 -57 25 -86 l25 -54 52 43 c28 24 69 71 90 104 41 64 45 98
29 198 -8 48 -8 49 41 103 l50 54 71 0 c69 0 70 0 52 -20z m-1579 -86 c10 -25
10 -39 1 -72 l-12 -40 -203 -2 c-176 -1 -202 1 -202 15 0 13 25 15 183 15 129
0 187 -4 195 -12 25 -25 11 7 -15 35 -25 25 -28 36 -28 92 l0 64 34 -32 c18
-18 39 -46 47 -63z m29 53 c28 -16 60 -38 72 -49 22 -21 60 -115 50 -124 -8
-9 -91 17 -109 33 -10 9 -18 29 -18 45 0 37 -14 64 -54 106 -36 39 -21 36 59
-11z m-615 12 c30 -6 65 -17 77 -25 29 -18 71 -101 82 -159 10 -51 12 -50 -75
-34 -91 16 -94 17 -94 48 0 15 -14 49 -31 77 l-30 49 47 -50 c58 -62 32 -16
-35 64 -41 48 -43 54 -21 47 14 -4 50 -12 80 -17z m2371 -56 c-27 -39 -43 -74
-47 -104 l-6 -45 -72 -27 c-39 -15 -79 -27 -88 -27 -23 0 -23 29 -3 98 14 46
19 52 43 52 37 1 97 30 157 78 28 22 52 38 54 36 2 -1 -15 -29 -38 -61z m-321
15 c-4 -18 -10 -44 -15 -57 -5 -16 -4 -21 4 -17 6 4 14 26 18 49 5 33 8 37 14
22 4 -11 8 -36 8 -56 1 -30 -6 -43 -36 -69 l-36 -32 -13 23 c-7 13 -13 42 -14
64 0 31 7 46 32 72 40 41 48 41 38 1z m80 27 c0 -3 -7 -17 -17 -31 -12 -19
-18 -22 -24 -12 -17 26 -10 48 16 48 14 0 25 -2 25 -5z m-189 -22 c-15 -28
-61 -68 -114 -98 l-48 -28 6 39 c9 46 33 68 95 88 64 20 73 20 61 -1z m-1452
-9 c12 -12 -22 -14 -190 -12 -141 2 -176 5 -152 13 30 9 333 9 342 -1z m1269
-10 c29 -8 14 -29 -34 -44 -27 -9 -42 -9 -65 0 l-29 12 32 18 c36 19 61 23 96
14z m-1260 -42 c3 -10 -33 -12 -174 -10 -133 2 -178 6 -182 16 -3 10 33 12
174 10 133 -2 178 -6 182 -16z m1446 -63 c6 -69 5 -74 -29 -134 -19 -35 -56
-82 -82 -105 l-48 -42 -19 44 c-24 56 -32 139 -16 178 8 18 34 43 68 65 31 19
57 33 58 32 2 -1 -13 -34 -32 -72 -19 -39 -37 -86 -40 -105 -4 -29 -1 -25 19
22 27 64 99 188 108 188 3 0 9 -32 13 -71z m-276 46 c2 -2 -19 -10 -46 -19
-45 -15 -51 -15 -88 1 l-39 17 30 7 c26 6 134 1 143 -6z m101 -20 c-23 -82
-57 -141 -97 -167 l-40 -27 8 32 c9 41 25 72 64 122 66 85 79 93 65 40z m380
-5 c-10 -27 -16 -30 -51 -30 l-40 0 24 29 c15 20 32 30 50 30 26 1 26 0 17
-29z m-1634 10 c4 -7 -57 -10 -174 -10 -114 0 -181 4 -181 10 0 6 65 10 174
10 106 0 177 -4 181 -10z m1194 -6 c-18 -22 -64 -44 -93 -44 -49 0 -36 19 26
39 78 25 84 25 67 5z m809 -107 c-2 -61 -7 -92 -15 -95 -10 -3 -13 22 -13 103
0 96 2 106 15 95 13 -10 15 -32 13 -103z m-846 46 c-11 -16 -27 -40 -36 -55
-14 -25 -23 -28 -66 -28 -28 0 -50 3 -50 6 0 3 14 24 31 45 26 33 37 39 67 39
21 0 44 5 52 10 22 14 22 13 2 -17z m-1831 -6 c-7 -7 -11 -61 -11 -143 0 -115
-2 -134 -20 -156 -17 -22 -20 -44 -22 -158 -2 -96 -7 -135 -15 -138 -10 -3
-13 29 -13 135 0 136 1 140 25 163 24 23 25 27 25 160 0 132 8 169 32 153 6
-3 5 -10 -1 -16z m2289 3 c0 -5 -22 -10 -50 -10 -27 0 -50 5 -50 10 0 6 23 10
50 10 28 0 50 -4 50 -10z m325 -156 c-20 -15 -20 -70 0 -78 12 -4 15 -25 15
-98 l0 -93 -40 -44 c-32 -35 -41 -41 -46 -27 -5 12 0 226 7 271 0 6 -2 36 -6
67 -8 60 -1 108 15 108 6 0 10 -80 10 -211 0 -137 3 -208 10 -204 6 4 10 88
10 218 0 186 2 216 18 237 17 25 17 24 20 -55 2 -63 0 -82 -13 -91z m-2585
-237 c0 -354 -1 -371 -18 -350 -9 12 -29 25 -45 28 -35 9 -37 52 -3 84 23 22
23 24 31 314 4 161 9 295 12 300 18 30 23 -43 23 -376z m160 289 c0 -47 -4
-88 -10 -91 -6 -4 -10 27 -10 84 0 54 4 91 10 91 6 0 10 -35 10 -84z m-42 -68
l-3 -53 -17 32 c-17 30 -17 35 0 99 l17 67 3 -46 c2 -26 2 -70 0 -99z m237 68
l70 -64 -2 -88 c-2 -48 -7 -92 -12 -97 -6 -6 -28 6 -58 32 -45 38 -48 39 -53
20 -4 -17 -11 -10 -33 37 -27 58 -27 60 -14 129 l14 70 27 -60 c15 -33 32 -71
37 -84 5 -13 12 -21 15 -18 6 6 -42 131 -64 165 -25 39 1 24 73 -42z m-289 9
c3 -14 -1 -38 -10 -56 -9 -18 -16 -46 -17 -63 0 -17 -4 -40 -9 -51 -5 -13 -9
23 -9 98 -1 114 0 117 19 107 11 -6 23 -21 26 -35z m2434 -15 c0 -16 -2 -30
-5 -30 -9 0 -26 41 -20 50 12 20 25 9 25 -20z m-334 9 c3 -6 2 -15 -2 -19 -12
-12 -38 5 -30 19 9 14 23 14 32 0z m208 -21 c-2 -18 -10 -58 -17 -88 -13 -53
-16 -56 -75 -87 l-61 -32 4 27 c2 15 7 47 10 72 8 62 27 87 88 115 29 13 52
24 53 24 1 1 0 -14 -2 -31z m313 -25 c-3 -5 -10 -27 -16 -50 -10 -36 -16 -43
-36 -43 -28 0 -61 41 -52 65 4 8 21 18 39 24 41 12 71 13 65 4z m-2578 -95
c17 -34 31 -77 31 -97 0 -37 -48 -171 -61 -171 -12 0 -69 121 -69 146 0 13 8
40 17 60 l18 36 17 -53 c17 -50 17 -51 13 -14 -23 179 -17 195 34 93z m2581
-71 l0 -123 -50 -56 c-49 -55 -50 -58 -51 -120 0 -53 -2 -59 -11 -38 -5 14
-10 47 -9 75 1 44 5 53 46 95 l45 46 0 82 c0 67 16 162 27 162 2 0 3 -55 3
-123z m-2492 101 c7 -7 12 -24 12 -39 0 -20 -6 -28 -25 -31 -44 -9 -75 49 -37
71 23 14 36 13 50 -1z m2452 -126 l0 -88 -49 -48 c-60 -59 -69 -96 -41 -167
11 -27 20 -59 20 -70 0 -24 -33 -139 -40 -139 -12 1 -80 131 -80 153 0 13 9
50 20 82 11 32 20 66 20 77 0 27 14 22 28 -9 11 -28 12 -28 7 -2 -4 20 5 35
40 69 l45 44 0 93 c0 76 3 93 15 93 12 0 15 -16 15 -88z m-2730 -279 c-15 -11
-20 -25 -20 -58 0 -24 -5 -47 -10 -50 -6 -4 -10 11 -10 38 0 34 6 49 25 67 24
23 25 29 27 159 l2 136 3 -139 c3 -130 2 -140 -17 -153z m2551 180 c-79 -104
-110 -139 -132 -150 -28 -15 -129 -17 -129 -4 0 5 24 17 53 25 48 14 142 82
206 150 24 25 25 9 2 -21z m-82 -9 c2 -2 -29 -19 -70 -39 -81 -38 -79 -46 3
-15 l53 19 -35 -30 c-50 -42 -98 -53 -169 -37 l-59 13 70 52 69 52 67 -6 c37
-3 69 -7 71 -9z m70 -183 c-22 -68 -22 -72 -6 -106 l17 -36 -58 -54 c-31 -30
-60 -55 -63 -55 -11 0 -17 103 -9 160 6 51 11 58 71 111 35 32 65 56 67 54 2
-2 -7 -35 -19 -74z m-2489 -116 c22 -27 -10 -95 -46 -95 -7 0 -28 13 -46 30
l-33 29 30 25 c34 28 76 33 95 11z m2619 -446 l1 -431 -66 -75 -67 -74 -1
-222 -1 -222 -175 -3 -175 -3 -45 47 -45 48 47 -37 c46 -37 47 -37 135 -36 85
2 250 14 226 17 -8 2 -7 10 3 31 17 34 6 74 -26 91 -19 10 -20 20 -20 167 0
149 1 158 22 181 20 20 22 32 19 88 l-3 64 71 73 71 74 0 179 c0 130 3 184 13
193 8 9 1 8 -20 -3 -44 -22 -48 -21 -68 20 -16 34 -16 37 1 55 13 15 19 17 26
7 6 -10 8 -9 8 4 0 28 19 31 40 6 11 -13 19 -18 20 -11 0 6 -4 15 -10 18 -14
8 -13 99 2 146 6 22 12 39 14 39 1 0 3 -194 3 -431z m-74 311 c1 -38 -3 -49
-24 -65 -23 -17 -24 -17 -18 -1 4 10 7 50 7 89 0 70 0 71 17 47 9 -13 17 -45
18 -70z m-225 40 c18 -34 -4 -60 -50 -60 -46 0 -45 -1 -26 45 12 27 21 35 40
35 15 0 30 -8 36 -20z m-2334 -189 c19 -17 31 -31 27 -31 -4 0 -20 12 -35 27
-15 15 -28 22 -28 16 0 -6 32 -40 70 -74 l70 -62 -2 -575 c-2 -372 -7 -577
-13 -579 -7 -2 -9 189 -7 563 l3 566 -65 68 -66 68 2 99 c2 94 2 95 5 21 4
-73 5 -78 39 -107z m2584 -205 l0 -174 -65 -70 -65 -70 0 -65 c0 -64 -1 -66
-45 -109 l-45 -43 0 -117 c0 -65 -4 -118 -9 -118 -16 0 -21 30 -21 129 l0 97
45 44 45 44 0 76 0 75 70 70 69 70 1 161 c0 141 3 174 17 174 2 0 3 -78 3
-174z m-2123 66 l22 -7 -20 -32 c-17 -27 -28 -33 -55 -33 -37 0 -44 13 -16 30
15 10 14 11 -5 7 -26 -6 -27 -3 -13 24 11 19 43 23 87 11z m-397 -503 c0 -297
-3 -448 -10 -444 -6 4 -10 163 -10 444 0 386 2 451 17 451 2 0 3 -203 3 -451z
m-32 -99 c-4 -320 -3 -341 14 -357 17 -15 25 -53 11 -53 -4 0 -17 10 -30 22
l-23 21 0 342 c0 326 3 365 28 365 3 0 3 -153 0 -340z m2348 329 c10 -17 -13
-36 -27 -22 -12 12 -4 33 11 33 5 0 12 -5 16 -11z m-2020 -50 c3 -6 1 -16 -5
-22 -9 -9 -14 -8 -21 3 -9 15 -4 30 10 30 5 0 12 -5 16 -11z m-434 -106 c17
-15 18 -37 18 -277 0 -229 2 -265 17 -286 l17 -25 -22 19 c-22 19 -22 24 -22
287 0 265 0 268 -22 283 -12 9 -18 16 -14 16 5 0 18 -7 28 -17z m238 -164 c0
-11 -9 -32 -20 -46 l-20 -26 0 69 0 68 20 -22 c11 -12 20 -31 20 -43z m166 -5
c-3 -26 -6 -69 -6 -95 0 -38 -5 -53 -21 -67 -12 -9 -33 -26 -46 -37 -14 -12
-36 -51 -50 -90 l-24 -70 5 50 c4 34 17 66 41 100 19 27 32 51 30 54 -3 2 -6
2 -8 0 -48 -60 -77 -106 -77 -122 0 -34 -16 -7 -34 55 -35 122 -13 169 104
229 41 21 79 39 84 39 5 0 6 -21 2 -46z m2084 -134 c0 -82 -2 -150 -4 -150 -2
0 -11 -3 -20 -6 -14 -5 -16 10 -16 130 0 129 9 176 32 176 5 0 8 -67 8 -150z
m287 -292 c-1 -73 -3 -14 -3 132 0 146 2 205 3 133 2 -73 2 -193 0 -265z
m-2076 283 c-53 -61 -77 -74 -160 -85 -38 -6 -42 -5 -32 8 7 9 36 27 64 40 29
14 45 25 37 26 -8 0 -28 -7 -43 -15 -27 -14 -28 -14 -22 8 4 12 20 34 36 50
26 24 37 27 100 27 l71 0 -51 -59z m-168 -22 c-3 -11 -41 -52 -84 -92 -44 -40
-79 -77 -79 -83 0 -11 -42 -44 -55 -44 -4 0 44 54 106 120 62 66 114 120 115
120 1 0 0 -9 -3 -21z m-78 -25 c-15 -36 -40 -68 -106 -134 -19 -19 -49 -52
-66 -74 l-31 -39 23 79 c41 141 49 152 131 184 66 26 66 25 49 -16z m1933 -21
c36 -27 43 -65 17 -99 -8 -10 -15 -14 -15 -8 0 5 -7 19 -16 30 -16 20 -16 13
2 -31 9 -23 -21 -18 -52 8 -25 22 -26 26 -19 85 7 59 8 61 28 51 12 -7 37 -22
55 -36z m-2148 -161 c0 -49 -20 -120 -38 -134 -13 -11 -15 -10 -9 5 4 10 7 78
8 150 l0 132 19 -60 c11 -33 20 -75 20 -93z m420 118 c14 -4 19 -8 12 -9 -7
-1 -39 -19 -70 -41 -58 -40 -78 -45 -167 -41 l-50 2 44 39 c24 22 58 44 75 49
38 11 122 12 156 1z m1779 -47 c0 -5 -4 -17 -8 -28 -5 -11 -4 -31 1 -45 l9
-25 -22 22 c-20 19 -21 25 -9 52 11 28 31 43 29 24z m76 -29 c19 -20 16 -43
-7 -58 -38 -23 -78 35 -42 61 23 17 29 16 49 -3z m-430 -70 c13 -5 55 -72 55
-88 0 -14 -84 -27 -111 -17 -31 11 -99 59 -99 70 0 4 26 14 58 23 68 19 75 20
97 12z m-1945 -100 c0 -39 -5 -66 -13 -73 -22 -18 -27 -2 -27 81 0 76 1 78 20
66 16 -11 20 -24 20 -74z m1227 6 c35 -9 47 -18 63 -50 11 -22 20 -44 20 -50
0 -11 -89 -14 -106 -2 -15 10 -30 40 -42 85 -9 34 -9 37 6 33 9 -3 36 -10 59
-16z m432 13 c-43 -4 -51 -10 -149 -108 l-105 -105 -60 0 c-57 0 -63 2 -98 38
l-37 38 67 -4 c38 -2 75 -10 84 -18 30 -27 54 -14 144 76 l90 90 55 -2 c54 -2
54 -2 9 -5z m-1286 -98 c17 -24 17 -25 -1 -25 -11 0 -27 11 -36 25 -15 23 -15
25 1 25 10 0 26 -12 36 -25z m-58 -5 c14 -16 15 -20 4 -20 -16 0 -39 19 -39
32 0 14 16 9 35 -12z m-381 -16 c9 -8 16 -22 16 -29 0 -17 -27 -45 -44 -45
-35 0 -49 61 -18 79 23 14 28 14 46 -5z m2707 6 c25 -14 25 -56 -1 -70 -45
-24 -86 44 -42 69 21 13 20 13 43 1z"/>
<path d="M1077 554 c-4 -4 -7 -17 -7 -29 0 -11 -18 -39 -40 -60 -35 -34 -40
-45 -40 -84 0 -40 -5 -51 -42 -88 l-42 -43 -47 46 c-40 40 -49 44 -67 35 -11
-6 -38 -10 -59 -9 l-38 1 41 6 c28 4 55 19 87 47 26 23 47 46 47 52 0 5 9 12
20 15 24 6 28 52 5 61 -28 10 -45 -5 -45 -41 0 -27 -9 -45 -42 -80 -42 -43
-44 -44 -88 -38 -30 4 -55 16 -75 36 -58 55 -49 29 10 -31 32 -33 62 -56 65
-51 3 5 24 10 46 12 36 3 47 -2 89 -39 l49 -43 53 53 c47 46 53 57 53 93 0 34
6 47 34 74 19 18 45 39 58 45 30 15 32 60 3 64 -12 2 -24 0 -28 -4z m-181 -75
c8 -14 -18 -31 -30 -19 -9 9 0 30 14 30 5 0 12 -5 16 -11z"/>
<path d="M2535 2386 c-28 -24 -48 -46 -45 -49 5 -5 100 80 100 89 0 8 -6 4
-55 -40z"/>
<path d="M983 179 c-33 -31 -48 -39 -64 -34 -15 5 -19 4 -15 -4 14 -22 52 -10
90 28 l37 38 120 2 120 2 65 -63 c59 -58 64 -66 64 -105 0 -24 5 -43 10 -43 6
0 10 19 10 43 0 39 -5 48 -68 110 l-68 67 -129 0 -130 0 -42 -41z"/>
<path d="M775 187 c-34 -13 -46 -27 -37 -41 3 -6 5 -41 3 -78 -1 -43 2 -68 8
-68 7 0 11 24 11 58 0 45 4 61 20 75 11 9 17 23 14 32 -12 30 32 15 71 -25 36
-37 43 -40 96 -40 38 0 61 5 69 15 9 11 35 15 109 15 l96 0 42 -43 c22 -23 43
-54 46 -67 4 -23 4 -22 6 5 1 21 -9 40 -36 70 -36 38 -36 38 10 -5 29 -28 47
-53 47 -67 0 -13 5 -23 10 -23 6 0 10 11 10 25 0 17 -16 42 -44 72 l-45 46
-123 -2 c-67 -1 -127 -6 -133 -10 -5 -5 -33 -11 -61 -14 -50 -6 -52 -5 -95 39
-46 47 -48 48 -94 31z"/>
<path d="M1128 173 c29 -2 74 -2 100 0 26 2 2 3 -53 3 -55 0 -76 -1 -47 -3z"/>
<path d="M838 127 c34 -34 42 -50 42 -79 0 -28 5 -38 21 -43 25 -8 39 2 15 11
-10 4 -16 18 -16 37 0 23 -11 42 -42 74 -23 24 -47 43 -52 43 -6 0 9 -19 32
-43z"/>
<path d="M1050 110 c0 -6 32 -10 75 -10 43 0 75 4 75 10 0 6 -32 10 -75 10
-43 0 -75 -4 -75 -10z"/>
</g>
</svg>
