<?xml version="1.0" standalone="no"?>
<!DOCTYPE svg PUBLIC "-//W3C//DTD SVG 20010904//EN"
 "http://www.w3.org/TR/2001/REC-SVG-20010904/DTD/svg10.dtd">
<svg version="1.0" xmlns="http://www.w3.org/2000/svg"
 width="500.000000pt" height="500.000000pt" viewBox="0 0 500.000000 500.000000"
 preserveAspectRatio="xMidYMid meet">

<g transform="translate(0.000000,500.000000) scale(0.100000,-0.100000)"
fill="#000000" stroke="none">
<path d="M1527 4949 c-35 -35 -56 -49 -76 -49 -18 0 -39 -12 -61 -35 -32 -33
-38 -35 -99 -35 -42 1 -73 6 -85 15 -12 9 -42 15 -73 15 -53 0 -55 1 -109 60
l-55 59 -52 -59 c-46 -52 -57 -59 -89 -60 -25 0 -46 8 -68 26 -38 32 -53 24
-19 -10 18 -18 38 -26 72 -28 26 -2 47 -7 47 -13 0 -6 -73 -11 -192 -12 -179
-3 -194 -4 -210 -23 -21 -25 -88 -29 -88 -4 0 26 -63 82 -102 89 -148 28 -207
-195 -68 -253 l40 -17 0 -70 c0 -69 -1 -70 -35 -94 l-35 -24 0 -316 0 -317
-65 -64 c-58 -57 -65 -69 -65 -103 0 -30 -4 -40 -20 -44 -30 -8 -24 -25 8 -21
25 3 27 7 32 56 5 50 10 57 68 110 l62 57 0 284 0 283 26 20 c20 16 24 26 19
48 -4 20 -2 29 9 33 13 5 16 23 16 85 l0 78 35 13 c33 12 36 11 69 -22 38 -38
160 -219 176 -261 5 -15 10 -45 10 -67 0 -21 5 -39 10 -39 11 0 14 -327 3
-356 -5 -13 -14 -1 -39 47 -25 51 -30 68 -21 84 16 31 47 157 46 190 -1 19 -6
7 -15 -34 -8 -36 -16 -67 -19 -69 -2 -3 -22 13 -43 34 -20 21 -56 54 -79 73
-23 19 -49 52 -59 73 -16 36 -17 48 -5 121 22 142 22 178 2 87 -11 -47 -20
-102 -21 -124 0 -30 -8 -47 -35 -77 l-35 -39 0 -226 0 -227 -40 -43 -40 -44 0
-235 c0 -150 4 -235 10 -235 6 0 10 84 10 233 l0 233 40 39 40 39 0 231 0 232
24 22 c25 23 46 21 46 -3 0 -8 -7 -19 -15 -26 -13 -10 -15 -50 -15 -239 l0
-227 -30 -29 -30 -29 0 -217 0 -217 -55 -50 -55 -51 0 -99 c0 -97 -1 -100 -27
-117 l-26 -18 26 -19 27 -20 0 -534 c0 -523 0 -534 -20 -546 -13 -9 -20 -24
-20 -45 0 -27 5 -34 27 -39 14 -4 33 -2 42 3 22 14 26 57 7 73 -14 11 -16 75
-16 536 0 288 4 524 8 524 5 0 16 -8 25 -18 15 -16 17 -45 17 -193 l0 -174
105 -105 c58 -58 105 -108 105 -112 0 -4 -11 -3 -25 4 -19 8 -28 8 -40 -2 -17
-14 -20 -46 -5 -55 6 -4 10 -68 10 -159 l0 -152 -35 -34 -35 -34 0 -582 0
-582 60 -55 60 -54 0 -105 c0 -89 -3 -107 -18 -122 -18 -15 -20 -15 -35 2 -14
15 -17 42 -17 148 -1 98 -3 125 -12 110 -7 -12 -8 -50 -4 -110 8 -107 3 -130
-25 -115 -17 9 -19 22 -19 112 l0 102 -42 37 -43 38 1 437 1 437 -34 29 c-30
27 -44 57 -25 57 4 0 24 -18 45 -40 l37 -40 0 -438 0 -439 25 -23 c14 -13 27
-21 30 -18 3 2 -4 13 -15 23 -19 18 -20 30 -20 459 l0 442 -50 49 c-48 47 -50
48 -65 30 -19 -27 -19 -27 15 -60 l30 -29 0 -436 0 -436 45 -44 45 -44 0 -97
0 -97 -34 -6 c-38 -7 -82 -51 -92 -92 -28 -112 93 -205 190 -145 19 12 38 30
41 40 5 18 68 35 88 24 4 -2 7 -51 7 -109 0 -139 18 -136 22 4 l3 107 49 1
c99 2 96 6 96 -112 0 -63 4 -104 10 -104 6 0 10 45 10 115 l0 115 -122 0
c-128 0 -155 7 -145 34 5 14 29 16 162 16 l155 0 0 -140 c0 -87 4 -140 10
-140 6 0 10 53 10 140 l0 140 34 0 c29 0 33 -3 29 -23 -3 -14 2 -29 11 -36 13
-11 16 -35 16 -117 0 -63 4 -104 10 -104 6 0 10 41 10 104 0 83 3 105 15 110
8 3 15 15 15 27 0 18 2 19 15 9 12 -10 15 -38 15 -131 0 -73 4 -119 10 -119 6
0 10 48 10 123 l0 123 -41 27 -41 27 -224 0 c-143 0 -224 4 -224 10 0 6 3 10
8 10 7 0 52 40 148 133 l52 49 53 -16 c30 -8 84 -38 123 -66 l69 -50 -124 -2
c-68 -1 -152 -1 -186 1 -38 2 -63 -1 -63 -7 0 -20 42 -24 211 -21 l169 3 33
-32 c32 -31 67 -43 67 -22 0 6 -6 10 -14 10 -8 0 -27 15 -42 33 l-27 32 28 3
c22 3 34 -3 49 -24 25 -35 23 -19 25 -196 1 -91 5 -148 11 -148 6 0 10 53 10
140 l0 140 50 0 c39 0 48 -3 44 -14 -8 -21 14 -56 36 -56 37 0 50 12 50 44 0
37 -15 56 -44 56 -20 0 -86 68 -86 88 0 19 118 44 226 49 l112 5 66 -61 c36
-33 73 -61 82 -61 9 0 53 36 98 80 l82 80 241 0 240 0 184 -185 183 -185 108
0 108 0 176 179 175 179 64 4 c52 2 65 0 74 -14 22 -35 71 -15 71 28 0 30 -18
35 -148 41 l-113 6 -159 -158 c-88 -88 -163 -156 -166 -152 -7 7 140 168 275
302 l81 80 0 71 c0 63 2 72 20 77 11 3 25 17 31 31 10 20 9 30 -5 51 -20 30
-46 32 -71 5 -13 -14 -15 -27 -10 -47 4 -15 9 -61 12 -101 l5 -74 -81 -83 -81
-83 -14 26 c-8 15 -35 47 -60 72 l-46 44 0 113 c0 100 3 117 21 142 26 35 18
68 -18 77 -35 9 -57 -7 -61 -44 -2 -23 2 -34 17 -42 19 -10 21 -20 21 -134 l0
-124 60 -61 c33 -34 60 -67 60 -74 0 -14 -41 -57 -53 -57 -4 0 -7 23 -7 52 l0
51 -92 94 -93 93 -58 0 c-69 0 -102 18 -117 66 -20 59 -91 59 -98 0 -5 -41 15
-59 59 -52 28 5 40 1 54 -14 15 -16 31 -20 84 -20 l66 0 86 -93 87 -93 3 -61
4 -61 -52 -55 -52 -55 -46 34 c-32 25 -56 56 -81 105 -30 61 -41 73 -78 90
-47 20 -145 44 -152 36 -3 -3 29 -12 70 -21 41 -10 87 -26 101 -38 26 -20 31
-29 65 -120 l18 -48 -70 0 c-38 0 -78 5 -90 11 -11 6 -22 8 -25 6 -15 -15 50
-29 128 -28 86 1 88 0 129 -34 31 -26 48 -34 64 -29 11 3 89 73 172 155 l150
149 87 0 c51 0 87 -4 87 -10 0 -6 -30 -10 -69 -10 l-69 0 -173 -180 -174 -180
-101 0 -101 0 -69 73 c-72 75 -114 143 -134 216 -6 24 -14 41 -17 38 -5 -5 5
-39 32 -112 4 -11 -32 19 -81 68 l-89 87 -253 0 -252 0 -64 -64 c-35 -35 -76
-72 -90 -82 l-27 -17 -51 49 c-29 27 -58 55 -66 62 -10 9 -33 11 -81 6 -54 -4
-70 -3 -80 10 -8 9 -18 16 -23 16 -6 0 -5 -7 2 -15 10 -13 9 -15 -12 -15 -13
0 -84 -18 -157 -40 -73 -22 -147 -40 -164 -40 -22 0 -57 17 -112 54 -44 29
-96 63 -115 74 l-34 21 29 12 c17 7 66 12 110 13 67 0 90 -4 139 -27 33 -15
61 -25 64 -22 3 2 -26 19 -64 37 -63 30 -77 33 -167 33 l-98 0 43 37 c85 75
134 100 201 105 82 7 99 -3 215 -119 l92 -94 78 10 c42 5 80 14 84 20 4 6 39
-21 86 -67 44 -42 84 -77 89 -77 4 0 43 35 86 78 l77 77 0 74 0 73 67 69 c36
38 75 69 85 69 35 0 58 19 58 48 0 33 -16 52 -45 52 -30 0 -45 -19 -45 -56 0
-26 -12 -43 -67 -97 l-68 -66 -3 -78 -4 -78 -66 -67 c-37 -38 -71 -68 -76 -68
-6 0 -43 32 -83 72 l-73 72 -29 -17 c-32 -19 -145 -24 -171 -7 -10 7 8 10 61
10 l77 0 81 78 c45 43 81 86 81 95 0 10 10 17 28 19 23 3 27 8 30 40 3 32 -1
40 -21 49 -18 8 -30 8 -47 -1 -20 -10 -22 -18 -18 -60 l5 -48 -73 -76 -72 -76
-79 0 -78 1 -73 69 c-71 67 -73 70 -45 71 64 1 61 15 -3 16 -38 0 -89 1 -114
1 -25 1 -53 -1 -62 -4 -33 -10 -19 23 25 61 107 92 177 118 312 118 39 0 55 2
38 4 -44 6 -41 17 7 32 47 14 93 57 149 140 22 32 47 61 56 65 9 3 13 11 10
17 -4 6 5 24 20 39 21 22 34 28 55 24 46 -10 81 51 48 84 -32 32 -88 4 -88
-43 0 -8 -14 -31 -31 -50 l-31 -34 -87 4 -86 4 85 -10 c47 -5 90 -11 96 -14 7
-2 -2 -20 -22 -42 -18 -21 -52 -62 -76 -92 -52 -66 -91 -87 -183 -100 -38 -6
-86 -13 -105 -17 l-35 -7 30 32 c17 18 63 48 103 67 39 20 72 37 72 39 0 8
-62 -15 -114 -42 -64 -33 -283 -234 -292 -268 -6 -23 -110 -103 -121 -92 -3 3
46 59 109 124 63 65 122 129 131 143 10 14 49 57 87 96 l70 72 0 130 0 131 30
18 c49 29 38 103 -16 103 -38 0 -59 -44 -39 -83 8 -16 9 -30 3 -38 -5 -8 -7
-71 -6 -141 l3 -127 -40 -41 c-46 -47 -61 -51 -40 -10 29 57 22 61 -52 34 -38
-13 -71 -24 -74 -24 -4 0 -1 17 6 38 8 21 17 104 21 185 7 140 6 147 -12 147
-10 0 -72 -27 -136 -60 l-118 -60 0 43 c0 39 -5 47 -50 87 l-50 44 0 442 0
442 -67 62 c-61 58 -65 64 -48 76 16 12 25 6 86 -59 l68 -72 1 -452 0 -452 26
-20 c39 -30 52 -26 21 7 l-27 28 0 230 0 229 128 131 c123 126 129 131 177
137 36 5 55 2 69 -8 11 -8 34 -15 50 -14 l31 1 -30 7 c-16 4 -41 13 -54 21
-22 11 -23 14 -9 24 57 39 55 38 33 30 -57 -18 -58 -18 -50 7 13 42 45 69 83
69 29 0 108 -17 120 -26 8 -5 -69 -114 -80 -114 -6 0 -8 -3 -5 -7 10 -10 44
25 77 79 21 34 26 50 18 53 -70 21 -92 26 -128 28 -35 1 -46 -4 -66 -26 -13
-16 -27 -40 -30 -55 -10 -49 -13 -52 -46 -52 -24 0 -43 -10 -75 -42 l-44 -43
3 165 3 165 38 18 c32 15 37 21 37 52 0 44 -33 65 -70 45 -19 -10 -22 -18 -17
-56 2 -24 1 -47 -4 -50 -5 -3 -9 -84 -9 -181 l0 -176 -75 -76 -75 -76 0 205 0
206 -75 76 c-58 59 -79 75 -96 71 -15 -4 -33 7 -70 43 l-49 48 0 121 0 120 34
27 c19 15 40 43 46 63 6 19 16 35 21 35 15 0 10 -74 -7 -109 -14 -29 -14 -34
0 -56 19 -30 47 -32 69 -7 26 28 22 70 -8 84 l-25 11 0 331 0 331 36 -62 c44
-79 54 -82 16 -5 -44 87 -65 159 -58 195 4 18 7 139 6 270 0 133 3 237 8 237
10 0 63 -39 74 -55 4 -5 8 -34 8 -63 0 -40 -6 -62 -22 -85 -16 -23 -25 -53
-29 -107 -4 -41 -10 -84 -14 -95 -3 -11 2 -5 13 14 21 38 23 36 37 -39 12 -61
26 -112 31 -107 2 2 -3 51 -13 108 -20 121 -22 194 -5 211 8 8 25 -17 66 -101
66 -134 76 -185 51 -256 -28 -81 -87 -215 -94 -215 -4 0 -13 6 -20 13 -8 6 -5
-1 4 -16 l18 -29 13 25 c8 14 34 76 60 138 44 109 46 117 40 183 -6 61 -5 67
9 56 8 -7 23 -26 34 -44 16 -28 18 -52 17 -229 -1 -178 -3 -199 -18 -208 -21
-11 -24 -59 -6 -77 18 -18 53 -15 71 6 22 25 21 48 -3 72 -19 19 -20 33 -20
225 0 193 -1 206 -20 225 -12 12 -18 25 -15 30 4 6 -5 10 -19 10 -24 0 -66 44
-66 69 0 6 -5 11 -10 11 -6 0 11 19 37 43 l48 42 -3 139 -3 138 68 -5 68 -6
-65 14 c-36 7 -70 14 -77 14 -8 1 -12 -43 -12 -151 -2 -147 -6 -167 -33 -168
-5 0 -8 72 -8 160 0 145 2 160 18 161 9 1 2 6 -15 11 -31 10 -33 14 -33 58 0
40 -8 60 -56 134 -31 48 -54 89 -52 92 3 2 36 -31 74 -75 37 -44 70 -78 73
-76 5 5 -66 98 -143 189 -57 67 -65 62 64 36 30 -6 79 -16 109 -22 92 -17 173
-114 211 -251 l16 -58 355 0 356 1 33 -35 c31 -32 39 -35 90 -35 53 0 58 -2
102 -47 30 -31 48 -59 50 -78 2 -19 12 -34 30 -44 24 -14 28 -14 47 3 26 24
28 72 3 85 -9 5 -28 7 -42 4 -20 -3 -35 6 -75 46 -47 49 -51 51 -105 51 -50 0
-59 4 -96 40 -23 21 -44 45 -47 52 -3 7 -6 3 -6 -9 -1 -22 -21 -34 -21 -14 0
6 -25 40 -57 77 -52 61 -56 70 -54 113 1 25 4 54 7 64 7 21 -5 79 -15 73 -4
-3 -109 -6 -235 -7 -229 -2 -245 0 -246 32 0 11 456 0 484 -11 42 -15 116 -90
143 -144 24 -48 26 -76 8 -134 -6 -18 -4 -21 9 -16 10 4 31 -7 56 -29 27 -23
55 -36 83 -40 23 -3 59 -9 80 -13 26 -5 37 -3 37 5 0 7 -4 10 -9 7 -13 -8
-109 13 -146 32 -16 8 -44 26 -62 40 -26 21 -30 29 -22 45 23 41 -12 120 -84
195 -63 64 -47 67 59 11 159 -84 195 -120 240 -246 13 -37 21 -52 18 -33 -4
19 -15 57 -26 85 l-20 50 31 27 31 28 377 0 376 0 73 70 72 70 60 0 c51 0 65
-4 97 -30 38 -30 39 -30 166 -30 85 0 129 -4 129 -11 0 -6 15 5 33 23 17 18
48 46 67 62 31 25 32 26 5 11 -16 -10 -41 -28 -56 -41 -24 -23 -32 -24 -161
-24 -134 0 -137 1 -169 27 -30 25 -37 27 -118 24 -56 -1 -87 -6 -90 -14 -2 -7
-27 -33 -55 -59 l-51 -48 -377 0 -378 0 -39 -35 c-44 -40 -69 -30 -30 11 30
32 16 44 -16 14 l-25 -23 -22 20 c-41 36 -52 43 -131 89 -42 25 -75 50 -72 55
4 5 -7 6 -22 3 -38 -8 -29 -7 -300 -6 -235 2 -243 3 -243 22 0 12 15 29 38 44
20 13 48 35 61 50 20 21 33 26 74 26 46 0 52 -3 97 -50 l48 -50 84 0 84 0 44
45 c37 38 50 45 83 45 32 0 46 -7 73 -35 18 -19 42 -35 54 -35 11 0 34 -7 50
-15 26 -14 29 -14 24 0 -5 13 39 15 375 15 l380 0 28 35 c26 32 33 35 80 35
40 0 58 -5 81 -25 28 -24 37 -25 149 -25 106 0 122 2 137 19 17 19 19 19 89
-15 39 -19 81 -34 92 -34 11 1 -3 8 -30 18 -45 16 -215 109 -215 118 0 2 12
10 28 19 26 15 26 16 2 9 -43 -11 -47 -23 -18 -49 15 -12 32 -25 39 -27 7 -2
10 -11 6 -21 -5 -14 -20 -17 -72 -17 -37 0 -65 4 -65 10 0 6 25 10 55 10 30 0
55 5 55 10 0 6 -24 10 -53 10 -41 0 -58 -5 -72 -20 -26 -29 -80 -26 -118 6
-27 23 -37 25 -96 22 -36 -2 -73 -7 -81 -11 -21 -10 -42 6 -34 26 5 14 20 17
79 17 l73 0 7 32 c4 18 16 44 27 59 24 32 20 63 -7 66 -11 2 -14 0 -7 -3 17
-8 15 -39 -3 -54 -32 -27 -62 18 -32 49 10 10 8 12 -8 9 -25 -4 -32 -50 -11
-68 9 -7 16 -25 16 -41 0 -29 0 -29 -63 -29 -65 0 -87 -11 -87 -42 0 -17 -20
-18 -365 -18 -237 0 -365 -4 -365 -10 0 -6 139 -10 398 -10 l397 -1 -28 -24
-28 -25 -400 0 -400 0 -48 40 c-40 34 -54 40 -92 40 -40 0 -49 -5 -87 -45
l-42 -45 -79 0 -79 0 -45 50 c-43 47 -48 50 -95 50 -28 0 -54 5 -57 10 -4 6
18 10 58 10 62 0 65 -1 100 -40 35 -39 37 -40 103 -40 66 0 69 1 110 41 42 41
43 41 113 41 67 -1 73 -3 97 -31 25 -30 64 -42 64 -21 0 6 -6 10 -13 10 -7 0
-26 14 -42 30 -27 29 -33 30 -110 30 l-81 0 -39 -40 c-37 -38 -42 -40 -101
-40 -41 0 -65 5 -73 14 -10 12 -7 15 16 20 15 3 46 5 67 4 32 -1 44 4 67 30
18 19 38 32 53 32 13 0 45 16 70 35 39 30 49 33 71 25 38 -15 75 10 75 51 0
17 -18 9 -23 -11 -3 -11 -12 -23 -21 -26 -20 -8 -49 15 -42 33 9 23 -8 12 -57
-38z m-508 -43 c28 -32 40 -54 36 -67 -3 -10 -7 -28 -11 -39 -6 -23 -60 -70
-81 -70 -12 0 -14 8 -8 43 4 27 3 37 -3 27 -6 -8 -13 -33 -16 -55 -12 -73 -22
-76 -69 -22 l-43 47 -177 0 c-163 0 -199 5 -166 25 6 4 94 8 196 9 l185 3 25
-34 c14 -18 30 -33 35 -33 5 0 -2 14 -16 31 -39 46 -35 83 17 139 23 26 45 47
48 46 3 0 25 -23 48 -50z m-716 -108 c24 -28 21 -65 -8 -93 -45 -46 -118 -18
-118 45 0 70 81 101 126 48z m544 -85 c51 -42 75 -81 32 -50 -54 39 -85 57
-99 57 -8 -1 -1 -8 15 -17 33 -17 134 -93 178 -132 15 -14 27 -21 27 -16 0 4
-8 14 -17 21 -15 11 18 13 210 14 l228 0 -3 -27 -3 -28 -200 1 c-110 1 -236 3
-280 4 -55 2 -93 -2 -123 -13 l-43 -16 -37 33 c-45 40 -51 42 -151 56 -105 14
-188 42 -170 57 8 5 40 13 71 16 47 4 56 3 51 -9 -4 -12 0 -13 23 -3 16 6 67
21 114 34 47 13 78 24 70 24 -8 0 -40 -6 -70 -14 -30 -8 -98 -15 -152 -15 -85
0 -101 -3 -118 -20 -39 -39 -48 -8 -20 66 l10 27 205 -5 205 -5 47 -40z m83
-183 c-10 -6 69 -10 233 -10 l248 0 -3 -22 -3 -23 -306 -3 c-254 -2 -308 0
-318 12 -10 11 -4 17 31 30 51 18 74 23 108 25 20 0 22 -1 10 -9z m480 -89 c0
-5 3 -16 6 -25 6 -14 -24 -16 -288 -16 -298 0 -318 2 -318 37 0 10 61 13 300
13 176 0 300 -4 300 -9z m-1185 -41 c0 -8 -10 -16 -22 -18 -18 -3 -23 2 -23
18 0 16 5 21 23 18 12 -2 22 -10 22 -18z m1226 -32 c10 -19 4 -19 -298 -16
-287 3 -308 4 -311 21 -3 17 12 18 297 16 287 -1 302 -2 312 -21z m52 -53 c11
-15 17 -27 15 -28 -1 -1 -150 -1 -329 1 -311 3 -327 4 -332 22 -3 10 -3 20 -2
22 2 2 144 4 317 6 l313 3 18 -26z m-1131 -722 c-1 -362 -6 -613 -12 -613 -5
0 -17 13 -27 30 -16 28 -65 48 -100 42 -9 -2 -13 15 -13 61 0 59 2 65 35 97
l35 34 0 252 c0 215 2 253 15 258 13 5 15 40 15 234 0 239 6 273 40 235 13
-16 15 -91 12 -630z m1546 486 c3 -28 -16 -43 -43 -33 -31 12 -8 68 25 62 8
-2 16 -15 18 -29z m-1683 -862 c-34 -28 -35 -31 -35 -101 0 -58 -4 -76 -18
-89 -26 -24 -32 -13 -32 56 0 53 22 126 39 127 3 0 19 12 34 25 l28 25 -1 214
c0 117 3 222 7 232 5 10 9 -89 11 -221 l3 -240 -36 -28z m480 23 c0 -18 -6
-26 -23 -28 -24 -4 -38 18 -28 44 3 9 15 14 28 12 17 -2 23 -10 23 -28z m-406
-226 c17 -14 31 -35 31 -45 0 -38 -40 -100 -71 -111 l-29 -10 0 -130 0 -130
58 -54 c31 -29 51 -54 44 -54 -7 0 -33 19 -57 41 -26 24 -45 36 -45 27 0 -7 8
-21 18 -29 10 -9 62 -55 115 -103 l97 -88 0 -946 c0 -615 4 -942 10 -932 6 9
10 124 10 274 0 143 2 257 5 255 6 -6 54 -168 67 -226 6 -27 5 -71 -2 -130 -6
-48 -13 -99 -14 -112 -2 -16 -24 -42 -62 -74 l-59 -50 -3 958 -2 958 -101 103
-100 104 3 169 3 170 -25 15 c-14 9 -41 31 -62 49 l-36 33 56 47 c67 56 104
61 151 21z m95 -160 c21 -8 21 -50 0 -58 -32 -12 -57 27 -32 52 14 14 12 14
32 6z m375 -321 c11 -21 -3 -53 -23 -53 -25 0 -39 26 -26 49 13 25 36 27 49 4z
m-389 -283 c0 -24 -26 -38 -42 -22 -16 16 -2 42 22 42 13 0 20 -7 20 -20z m4
-1539 c-3 -3 -12 3 -19 13 -12 16 -14 115 -11 578 2 307 -1 561 -5 564 -5 3
-9 -236 -9 -538 0 -299 -3 -553 -6 -565 -4 -15 2 -28 25 -49 24 -21 31 -35 31
-66 0 -21 -4 -38 -9 -38 -5 0 -27 18 -50 40 l-41 40 0 575 0 576 35 30 35 31
0 153 c0 114 3 154 13 158 9 3 13 -152 15 -746 1 -413 -1 -753 -4 -756z m-239
1070 c0 -30 -14 -36 -40 -18 -25 19 -13 50 17 45 17 -2 23 -10 23 -27z m944
-355 c16 -19 -4 -59 -26 -54 -26 5 -39 34 -24 52 17 20 35 20 50 2z m-562 -38
c28 -27 33 -39 33 -77 -1 -36 -7 -54 -30 -81 -17 -19 -30 -40 -30 -47 0 -6 -4
-15 -10 -18 -6 -4 -10 40 -10 124 0 72 3 131 7 131 4 0 22 -14 40 -32z m308
-135 c-9 -191 -14 -205 -80 -247 -30 -19 -61 -46 -69 -59 -24 -36 -63 -137
-70 -182 -3 -22 9 5 28 60 45 130 75 159 206 203 51 18 95 31 96 29 1 -1 -13
-35 -31 -75 -28 -60 -55 -95 -153 -195 -65 -68 -131 -142 -147 -165 -34 -52
-48 -54 -31 -4 8 22 11 62 8 97 -7 104 11 167 73 252 30 42 52 79 50 82 -3 2
-6 2 -8 0 -2 -2 -31 -39 -65 -82 -34 -43 -65 -90 -68 -105 -12 -54 -14 -59
-24 -42 -5 9 -20 57 -34 107 -48 172 -28 273 69 338 54 35 231 125 248 125 5
0 6 -55 2 -137z m693 14 c-2 -16 -10 -22 -28 -22 -28 0 -39 27 -20 50 18 21
52 1 48 -28z m1256 -363 c7 -19 -10 -44 -29 -44 -19 0 -36 25 -29 44 3 9 16
16 29 16 13 0 26 -7 29 -16z m-930 -10 c10 -26 -22 -56 -45 -43 -19 10 -25 39
-12 52 13 13 51 7 57 -9z m1246 -59 c15 -18 7 -43 -16 -52 -11 -4 -22 1 -30
12 -12 16 -11 21 3 37 20 22 27 22 43 3z m-1616 -39 c9 -13 7 -20 -9 -32 -22
-17 -35 -14 -49 10 -9 13 -7 20 9 32 22 17 35 14 49 -10z m944 -40 c5 -26 -26
-50 -45 -35 -14 12 -17 41 -6 53 13 13 48 1 51 -18z m852 -246 c11 -7 12 -14
4 -27 -15 -24 -33 -28 -40 -9 -7 18 1 46 13 46 4 0 15 -5 23 -10z m-2262 -167
l35 -43 -41 0 c-31 0 -44 5 -52 19 -5 11 -17 27 -27 36 -14 14 -14 18 -2 26
25 16 51 5 87 -38z m-733 -38 c28 -27 30 -42 13 -79 -12 -27 -40 -41 -73 -37
-26 3 -65 46 -65 72 0 28 44 69 75 69 14 0 37 -11 50 -25z m844 -39 c4 -26
-27 -50 -46 -35 -7 6 -13 22 -13 36 0 21 4 24 27 21 18 -2 29 -10 32 -22z
m-302 -30 c-8 -21 -43 -20 -51 1 -10 26 23 48 42 29 8 -8 12 -22 9 -30z"/>
<path d="M611 704 c0 -11 3 -14 6 -6 3 7 2 16 -1 19 -3 4 -6 -2 -5 -13z"/>
<path d="M3908 4971 c-80 -18 -118 -35 -56 -25 67 11 183 42 158 42 -14 0 -60
-8 -102 -17z"/>
<path d="M4132 4946 c87 -29 186 -81 176 -92 -6 -5 -227 23 -265 35 -18 5 -33
6 -33 2 0 -11 105 -39 180 -47 70 -7 115 -23 70 -24 -14 0 -59 -12 -100 -25
-98 -33 -131 -32 -199 6 -91 51 -175 120 -159 130 10 7 9 9 -4 9 -33 0 -18
-27 40 -72 83 -64 170 -110 211 -111 20 -1 63 7 96 16 32 9 80 17 105 17 40 0
51 -5 84 -39 l39 -40 -44 -11 c-24 -6 -53 -15 -65 -21 -13 -7 -69 -8 -152 -5
l-131 6 -30 -32 c-21 -22 -49 -38 -88 -49 l-58 -16 -60 31 -60 31 119 3 c100
2 123 6 144 22 22 18 41 20 173 20 199 0 196 18 -3 22 -147 3 -154 2 -179 -19
-24 -22 -34 -23 -170 -23 -161 0 -151 -3 -238 79 -29 29 -73 65 -97 82 -24 16
-44 32 -44 34 0 3 12 5 28 5 20 0 45 -18 99 -70 l71 -70 165 0 c127 0 171 3
193 15 34 18 51 16 -184 15 l-173 -1 -64 62 c-63 60 -67 62 -114 60 -39 -1
-55 4 -79 24 -17 14 -45 27 -64 30 -31 5 -31 4 -6 -4 48 -16 159 -104 146
-116 -2 -2 -24 2 -48 9 -25 7 -72 16 -105 19 l-60 6 60 -20 c33 -11 80 -23
105 -26 70 -9 68 -24 -8 -60 -37 -18 -61 -32 -53 -33 7 0 46 16 87 36 l73 35
31 -22 c17 -13 37 -33 45 -45 l14 -22 -93 5 c-51 3 -100 2 -110 -4 -11 -6 5
-8 49 -5 41 3 65 0 65 -6 0 -6 -26 -26 -57 -46 -32 -19 -53 -36 -47 -36 5 0
31 13 57 30 26 16 47 26 47 22 0 -26 -64 -134 -92 -155 -34 -27 -250 -90 -273
-80 -7 2 -16 0 -20 -6 -13 -22 38 -17 145 15 103 31 156 53 171 71 6 7 24 13
39 13 47 0 131 -23 127 -34 -6 -17 -67 -55 -109 -68 -31 -9 -50 -9 -84 0 -24
7 -66 11 -92 11 -41 -2 -39 -3 21 -9 80 -8 106 -24 55 -35 -46 -10 -140 -46
-135 -52 3 -2 40 7 82 22 43 14 98 28 124 31 l46 5 -35 -31 c-55 -50 -113 -73
-168 -66 l-47 6 -62 -78 c-78 -97 -73 -106 50 -108 45 -1 62 0 37 2 -103 8
-132 15 -126 30 3 7 27 41 53 74 l48 60 56 0 c43 0 68 7 105 27 l49 27 -38
-49 c-44 -59 -79 -122 -83 -150 -1 -11 -5 -42 -9 -70 -8 -48 -7 -49 12 -35 92
67 146 101 151 95 4 -3 12 -38 18 -76 13 -74 66 -199 84 -199 6 0 35 23 63 51
l52 52 -54 -47 c-29 -25 -57 -46 -61 -46 -11 0 -57 107 -69 160 -18 78 -14
176 10 223 12 23 26 45 31 48 6 4 12 27 14 53 2 25 8 55 14 65 5 11 10 28 10
38 0 10 17 29 38 42 37 25 211 82 224 75 8 -5 -11 -38 -52 -93 -14 -18 -66
-58 -117 -87 -51 -30 -95 -60 -99 -66 -7 -11 16 1 115 64 25 15 48 28 52 28 4
0 -9 -28 -30 -62 -42 -70 -111 -235 -111 -264 1 -11 12 8 25 41 30 73 51 113
124 233 52 87 71 108 71 80 0 -7 7 -56 15 -109 10 -67 11 -107 5 -131 -12 -41
-83 -163 -118 -200 -14 -16 -21 -28 -15 -28 12 0 87 108 123 178 27 52 29 97
11 224 l-13 97 35 48 c20 26 58 70 85 96 l49 48 121 5 c67 2 122 0 122 -4 0
-5 -13 -23 -30 -40 -23 -25 -35 -30 -62 -27 -131 16 -118 19 -185 -40 -72 -65
-98 -112 -89 -165 9 -59 47 -150 62 -150 24 0 18 -102 -6 -123 -22 -19 -26
-57 -8 -75 15 -15 61 -15 76 0 19 19 14 66 -8 80 -15 10 -20 24 -20 55 l0 43
85 0 c84 0 85 0 85 -25 0 -24 -2 -25 -70 -25 -40 0 -70 -4 -70 -10 0 -9 111
-15 208 -11 24 1 84 21 142 46 108 47 115 42 43 -27 -22 -22 -78 -55 -135 -81
-53 -24 -104 -50 -113 -57 -34 -28 -55 -90 -66 -192 -11 -107 -22 -130 -58
-121 -31 8 -61 -15 -61 -45 0 -33 16 -52 45 -52 24 0 55 29 55 51 0 8 4 19 9
24 5 6 14 62 21 125 14 127 21 154 53 188 17 19 196 112 214 112 11 0 -42 -62
-111 -130 -42 -41 -76 -79 -76 -84 0 -6 37 26 83 72 45 45 85 82 89 82 3 0 -3
-28 -13 -62 -11 -35 -21 -85 -23 -112 -5 -59 -23 -76 -140 -132 -42 -20 -75
-39 -72 -41 5 -5 141 62 178 88 36 26 44 24 57 -13 15 -43 103 -188 113 -188
5 0 16 17 24 37 9 20 26 52 39 71 l23 34 4 -49 c5 -44 2 -50 -26 -76 -67 -61
-108 -72 -255 -70 -155 3 -153 3 -278 -101 -40 -33 -85 -65 -100 -71 -28 -12
-28 -12 24 -23 29 -7 72 -14 95 -17 l43 -5 -37 10 c-21 6 -54 13 -73 18 l-36
7 89 72 c128 102 140 107 232 98 41 -4 97 -6 125 -5 l49 1 -24 -19 c-30 -23
-95 -57 -170 -88 -30 -13 -48 -23 -39 -24 22 0 131 44 198 80 l56 31 -55 -50
c-111 -102 -167 -130 -260 -131 -39 0 -51 -3 -40 -10 12 -8 5 -20 -40 -67 -30
-32 -56 -59 -57 -61 -1 -3 -16 -7 -34 -11 -38 -8 -53 -37 -35 -72 15 -30 55
-37 73 -13 7 10 13 33 13 52 0 27 12 47 63 103 53 58 67 69 95 69 40 0 90 20
139 57 49 36 200 165 236 200 26 27 27 27 27 6 0 -12 -10 -30 -23 -40 -12 -10
-37 -41 -54 -69 -45 -75 -95 -138 -138 -176 -37 -32 -40 -33 -154 -38 -65 -3
-109 -9 -100 -14 29 -13 212 9 244 30 27 18 107 114 168 203 16 23 34 41 42
41 19 0 27 -45 15 -91 -13 -48 -51 -92 -147 -170 -93 -77 -124 -128 -131 -219
-4 -59 -9 -73 -34 -99 -25 -26 -38 -31 -78 -31 -58 0 -73 -14 -98 -97 l-19
-61 64 -7 c49 -5 69 -3 87 8 34 22 51 70 38 106 -9 25 -7 32 12 50 12 12 25
21 28 21 3 0 9 -38 13 -85 4 -47 9 -85 12 -85 9 0 108 92 117 109 5 9 -17 -8
-47 -38 -31 -30 -58 -53 -61 -50 -10 11 -26 228 -20 278 9 75 24 101 90 158
31 26 82 71 112 98 63 58 63 64 11 -108 l-33 -108 17 -47 c10 -26 20 -54 23
-62 3 -8 -12 -33 -33 -56 l-38 -41 3 -176 c2 -113 -1 -184 -8 -197 -8 -16 -21
-20 -58 -20 -42 0 -53 -5 -82 -35 -19 -19 -44 -35 -56 -35 -26 0 -54 -24 -54
-46 0 -32 21 -54 50 -54 33 0 50 23 50 67 0 44 46 83 96 83 22 0 50 7 62 16
21 15 22 20 22 213 0 185 1 199 20 216 20 18 20 17 20 -165 l0 -182 35 -58 35
-58 -4 -257 -4 -256 -83 -87 c-45 -48 -95 -99 -111 -114 -28 -28 -28 -28 -28
-155 l0 -128 -74 -75 -75 -75 -4 -158 c-3 -87 -8 -161 -11 -164 -3 -3 -12 0
-21 7 -12 10 -15 41 -15 168 l0 155 70 73 70 72 0 156 c0 142 2 159 20 185 17
22 19 32 11 53 -12 31 -42 43 -71 28 -31 -16 -31 -67 1 -89 17 -12 19 -26 19
-169 l0 -156 -65 -66 -65 -65 -4 -160 c-2 -88 -4 -161 -5 -163 -1 -2 -14 5
-31 15 l-30 17 0 223 c0 137 -4 224 -10 228 -6 4 -10 78 -10 189 0 151 3 186
15 196 18 15 20 61 3 78 -37 37 -102 -15 -80 -63 7 -14 16 -25 22 -25 6 0 10
-62 10 -173 0 -137 3 -177 15 -193 23 -31 20 -474 -5 -569 l-18 -70 -1 289 -1
289 -74 81 c-57 63 -75 90 -78 116 -2 27 -9 37 -30 44 -36 13 -58 -6 -58 -49
0 -28 5 -35 30 -44 17 -5 30 -7 30 -3 0 3 36 -29 80 -73 l80 -80 0 -290 0
-290 55 -56 c31 -32 67 -60 81 -63 35 -9 138 -115 119 -122 -8 -3 -86 -4 -174
-2 l-160 3 -71 70 -70 69 0 146 0 145 -90 95 -89 95 -1 61 c0 43 5 65 15 74
36 30 5 107 -39 94 -27 -9 -36 -22 -36 -57 0 -21 6 -30 20 -34 18 -5 20 -14
20 -80 l0 -74 90 -93 90 -93 0 -133 c0 -128 -1 -133 -18 -117 -15 14 -42 17
-153 17 l-135 0 -32 33 c-31 32 -32 35 -32 129 l0 96 -75 79 c-54 57 -75 85
-75 105 0 32 -24 58 -54 58 -29 0 -46 -18 -46 -50 0 -33 17 -50 50 -50 19 0
46 -21 103 -78 l77 -77 0 -96 0 -95 38 -37 38 -37 131 0 c117 0 133 -2 157
-21 16 -13 26 -30 26 -47 0 -19 18 -45 62 -91 34 -35 71 -68 83 -75 14 -9 103
-11 323 -8 l302 4 0 369 c0 323 2 373 16 394 9 14 20 25 25 25 5 0 9 -183 9
-420 l0 -420 -341 0 -341 0 -95 90 -95 90 -163 0 c-135 0 -165 3 -175 16 -17
19 -69 15 -84 -8 -7 -11 -7 -26 0 -45 13 -39 56 -44 80 -9 15 25 21 26 106 26
64 0 87 -3 82 -11 -5 -8 0 -10 17 -6 76 18 98 19 126 2 23 -13 70 -83 91 -136
7 -18 -64 -39 -132 -39 -77 0 -91 6 -192 81 -61 44 -67 59 -26 60 15 0 36 5
47 10 14 6 6 7 -25 3 -75 -10 -76 -29 -7 -79 102 -74 128 -85 204 -85 54 0 83
6 122 23 l50 24 -28 27 c-16 16 -31 37 -34 47 -7 25 3 18 65 -47 l51 -54 356
2 356 3 2 440 2 440 75 80 75 80 2 245 c1 135 2 545 3 912 l1 666 83 83 82 83
2 141 c4 341 -5 443 -37 401 -5 -7 -16 -11 -22 -9 -10 4 -13 44 -13 155 l0
151 -38 41 c-34 37 -40 52 -56 139 -10 54 -16 100 -14 103 3 3 27 1 54 -3 l49
-8 3 -52 c2 -35 9 -56 22 -68 18 -17 20 -32 20 -198 l0 -179 65 -67 65 -68 0
-250 0 -251 -80 -75 -80 -75 0 -309 0 -309 40 -39 c51 -49 63 -40 16 13 l-36
39 0 298 0 297 75 77 74 77 1 264 1 264 -61 60 -61 60 2 178 c3 171 2 178 -19
201 -33 35 -31 115 4 148 58 54 69 114 31 170 -27 41 -79 69 -126 69 -27 0
-41 7 -62 33 -15 17 -31 29 -35 24 -4 -4 5 -21 21 -37 l29 -30 -26 -27 c-14
-16 -31 -38 -37 -50 -14 -27 -52 -31 -71 -8 -9 11 -34 15 -97 15 l-85 0 -51
44 c-29 24 -63 49 -76 56 -35 18 -192 70 -210 70 -9 -1 28 -16 81 -34z m668
-131 c81 -42 17 -164 -66 -126 -65 29 -43 135 29 140 4 1 21 -6 37 -14z m-440
-10 c9 -11 34 -15 100 -15 66 0 91 -4 100 -15 7 -8 25 -15 41 -15 22 0 29 -5
31 -20 0 -11 1 -26 2 -32 1 -7 6 -17 11 -21 6 -5 -2 -17 -20 -32 -293 -234
-281 -228 -438 -233 -97 -4 -118 -2 -116 9 1 8 -3 27 -9 42 -7 16 -12 33 -12
39 0 6 -2 9 -5 7 -2 -3 0 -33 5 -67 13 -77 3 -99 -73 -164 l-54 -47 -21 52
c-46 115 -39 148 48 232 34 31 63 56 65 54 2 -3 -5 -40 -15 -84 -24 -99 -24
-111 0 -60 10 22 19 55 19 73 1 47 21 62 80 62 28 0 51 -3 51 -6 0 -4 -16 -29
-36 -58 l-35 -51 38 45 c21 25 67 75 103 112 76 78 114 92 223 84 66 -5 67 -4
18 4 -45 7 -61 16 -102 56 -34 34 -45 50 -36 56 17 11 23 10 37 -7z m-672
-175 c45 -23 82 -44 82 -49 0 -5 -19 -12 -43 -15 -23 -4 -66 -18 -96 -31 -60
-28 -73 -29 -151 -13 -57 11 -57 11 -44 37 7 14 22 48 34 75 l20 49 58 -7 c36
-4 88 -21 140 -46z m1012 -135 c14 -74 20 -135 16 -155 -7 -41 -50 -88 -147
-166 -38 -30 -69 -57 -69 -61 0 -3 7 0 15 7 13 11 15 4 15 -54 0 -36 -2 -66
-5 -66 -9 0 -53 94 -64 138 -12 41 -4 84 8 49 3 -9 6 25 6 76 0 80 3 97 25
134 37 62 173 239 176 228 1 -6 12 -64 24 -130z m-94 99 c-3 -9 -36 -60 -72
-114 -60 -91 -66 -105 -72 -167 l-7 -67 -110 -48 c-79 -34 -123 -47 -157 -48
-43 0 -48 2 -48 23 0 27 36 171 49 195 5 9 9 22 10 27 0 6 27 13 60 16 63 6
116 32 211 103 62 46 133 96 139 96 2 0 0 -7 -3 -16z m-1067 -225 c-6 -30 -23
-76 -37 -104 -14 -27 -31 -68 -37 -90 -10 -33 -24 -49 -86 -92 -41 -28 -75
-50 -76 -49 -1 1 4 31 13 66 10 44 30 88 61 135 45 67 162 199 170 192 2 -2
-2 -28 -8 -58z m636 -6 c-8 -27 -15 -51 -15 -55 0 -5 -34 -8 -76 -8 l-76 0 31
35 c17 20 31 45 31 55 0 18 7 20 60 20 l59 0 -14 -47z m607 -184 c3 -134 1
-159 -12 -162 -8 -2 7 -2 33 0 46 5 48 4 43 -19 -9 -39 -39 -122 -49 -135 -15
-20 -66 -15 -98 8 -23 16 -29 28 -29 59 0 33 5 42 30 57 l30 17 0 190 0 189
25 -23 c23 -22 24 -28 27 -181z m-640 95 c3 -3 4 -14 1 -24 -4 -16 -17 -19
-90 -22 -89 -3 -109 6 -83 37 9 11 34 15 90 15 42 0 79 -3 82 -6z m568 -131
l0 -138 -28 -18 c-24 -17 -27 -24 -24 -62 3 -33 10 -48 28 -60 24 -15 24 -18
24 -168 l0 -153 -68 -72 c-94 -99 -94 -98 -89 155 3 109 7 216 11 238 5 37 5
37 -4 -4 -5 -24 -34 -87 -63 -140 -30 -53 -56 -102 -59 -110 -4 -14 -57 67
-102 156 -31 62 -33 105 -7 193 25 88 75 190 93 190 5 0 8 -62 8 -137 0 -75 2
-134 4 -132 5 6 15 113 16 179 l2 55 29 -60 c17 -33 40 -76 52 -96 l22 -37 -3
109 c-4 111 3 139 34 139 12 0 14 -60 14 -355 0 -230 4 -355 10 -355 6 0 10
128 10 364 l0 365 38 45 c20 24 40 45 45 45 4 1 7 -61 7 -136z m-735 -73 c0
-18 -6 -26 -23 -28 -13 -2 -25 3 -28 12 -10 26 4 48 28 44 17 -2 23 -10 23
-28z m884 -221 c1 -36 -2 -126 -5 -201 l-7 -134 -78 -84 -79 -83 0 -125 c0
-69 -3 -122 -7 -119 -21 21 -43 119 -43 189 l0 78 80 80 80 80 0 160 c0 87 4
161 9 164 5 3 14 27 21 53 10 40 14 45 20 28 5 -11 9 -50 9 -86z m-79 -161 l0
-153 -80 -79 c-79 -77 -80 -79 -81 -130 l0 -51 -20 44 c-11 24 -18 48 -17 52
2 4 36 44 76 88 l72 80 0 150 0 151 25 0 25 0 0 -152z m-755 -28 c0 -20 -6
-26 -26 -28 -30 -4 -46 22 -28 45 20 23 54 12 54 -17z m570 -370 c20 -52 45
-116 55 -142 27 -64 25 -101 -10 -210 -16 -51 -30 -99 -30 -107 0 -25 -21 3
-89 118 -40 68 -61 116 -61 136 0 18 13 70 29 116 16 46 35 110 42 142 7 32
16 54 20 50 4 -4 24 -51 44 -103z m-655 -151 c21 -37 -28 -69 -49 -32 -11 21
3 53 24 53 8 0 19 -9 25 -21z m748 -334 l-3 -188 -27 39 c-25 35 -28 49 -28
119 0 82 37 242 53 226 4 -4 6 -92 5 -196z m-159 105 c28 -45 31 -59 31 -128
0 -76 0 -77 -35 -105 l-35 -28 0 156 c0 85 2 155 4 155 2 0 18 -23 35 -50z
m-346 -51 c24 -29 21 -52 -9 -89 -26 -30 -29 -31 -83 -24 -31 3 -57 7 -59 9
-6 5 38 119 50 127 21 14 81 1 101 -23z m425 -101 c-4 -46 -28 -49 -28 -4 0
26 4 36 16 36 11 0 14 -8 12 -32z m40 -111 c29 -31 35 -84 12 -112 -13 -15
-111 -68 -115 -62 -24 31 -55 100 -55 120 0 16 12 40 31 59 27 29 30 30 26 11
-6 -28 9 -30 18 -3 3 11 13 27 22 36 15 14 17 14 26 -3 5 -10 21 -30 35 -46z
m37 -973 l-7 -151 -106 -107 c-78 -78 -107 -114 -108 -134 -1 -15 -3 -186 -3
-379 l-1 -353 -295 0 -295 0 -70 69 c-63 62 -83 91 -63 91 3 0 34 -27 69 -60
l62 -60 234 0 c234 0 308 5 308 21 0 5 -7 9 -16 9 -13 0 -12 5 5 26 23 29 28
92 11 124 -5 10 -26 28 -45 40 l-35 22 0 267 0 267 35 34 35 34 0 114 0 114
115 118 116 118 -1 297 -1 297 28 28 28 28 3 -361 c2 -199 0 -430 -3 -513z
m-75 525 l0 -291 -115 -118 -115 -119 0 -113 0 -113 -75 -77 -76 -76 1 -256
c1 -163 -3 -262 -9 -275 -14 -25 -14 -67 -1 -92 17 -31 -3 -22 -32 15 l-28 35
25 53 c15 32 24 69 24 93 l-2 40 -7 -45 c-8 -54 -26 -100 -38 -100 -5 0 -16
19 -25 42 -9 23 -19 39 -22 37 -3 -3 3 -24 12 -47 9 -23 14 -45 10 -48 -23
-24 -147 73 -147 115 0 19 30 163 36 170 4 5 111 -58 147 -87 18 -15 26 -19
18 -9 -10 13 -13 56 -12 190 l2 172 74 75 75 75 0 125 1 125 114 120 115 120
0 266 c0 266 0 266 23 277 12 6 23 11 25 11 1 1 2 -130 2 -290z m-382 175 c4
-29 -23 -51 -43 -34 -16 13 -20 42 -8 54 14 14 48 1 51 -20z m-210 -457 c3
-23 0 -27 -23 -27 -30 0 -43 24 -25 46 19 22 45 13 48 -19z m246 -69 c8 -14 7
-21 -6 -34 -30 -30 -75 9 -48 42 16 18 39 15 54 -8z m-463 -194 c9 -11 10 -20
3 -32 -15 -23 -29 -25 -48 -7 -12 12 -13 21 -6 36 13 23 33 25 51 3z m-231
-238 c0 -23 -30 -41 -48 -30 -23 15 -25 29 -7 48 12 12 21 13 36 6 10 -6 19
-17 19 -24z m742 -372 l-3 -211 -25 -12 c-14 -6 -27 -11 -29 -11 -3 0 -5 107
-5 237 l0 237 28 29 27 29 5 -44 c3 -24 4 -138 2 -254z m-1147 216 c8 -26 -1
-40 -26 -40 -22 0 -34 22 -25 45 8 22 44 18 51 -5z m1195 -500 c42 -42 14
-110 -46 -110 -57 0 -85 69 -44 110 11 11 31 20 45 20 14 0 34 -9 45 -20z
m-1054 -96 c8 -30 -6 -47 -32 -42 -23 4 -30 34 -14 53 19 23 39 18 46 -11z"/>
<path d="M4543 4683 c15 -2 37 -2 50 0 12 2 0 4 -28 4 -27 0 -38 -2 -22 -4z"/>
<path d="M3183 4943 c9 -2 25 -2 35 0 9 3 1 5 -18 5 -19 0 -27 -2 -17 -5z"/>
<path d="M3095 4925 c-39 -17 -11 -18 35 0 23 9 28 14 15 14 -11 0 -33 -6 -50
-14z"/>
<path d="M3010 4898 c-19 -6 -30 -12 -24 -15 7 -2 27 3 45 11 39 17 29 19 -21
4z"/>
<path d="M1563 4698 c-24 -12 -41 -23 -39 -26 2 -2 26 8 53 22 26 14 44 25 38
25 -5 1 -29 -9 -52 -21z"/>
<path d="M3208 4703 c12 -2 32 -2 45 0 12 2 2 4 -23 4 -25 0 -35 -2 -22 -4z"/>
<path d="M1775 4680 c3 -5 11 -10 16 -10 6 0 7 5 4 10 -3 6 -11 10 -16 10 -6
0 -7 -4 -4 -10z"/>
<path d="M1860 4661 c-48 -13 5 -16 273 -13 163 2 267 6 267 12 0 11 -500 12
-540 1z"/>
<path d="M1837 4624 c-3 -3 -3 -12 0 -20 4 -12 70 -14 399 -14 217 0 394 3
394 8 0 4 -172 8 -383 10 -243 1 -383 6 -385 12 -4 11 -16 13 -25 4z"/>
<path d="M1796 4598 c-11 -6 -40 -17 -65 -24 -31 -8 -38 -12 -21 -13 25 -1
110 33 110 44 0 7 -2 6 -24 -7z"/>
<path d="M2598 4451 l-160 -161 -102 0 c-90 0 -105 -2 -121 -20 -14 -15 -26
-19 -50 -14 -54 10 -86 -43 -49 -80 8 -9 24 -16 34 -16 21 0 50 25 50 44 0 7
9 25 21 40 20 25 24 26 122 26 l101 0 161 160 c156 154 163 160 202 160 33 0
50 -8 84 -36 l44 -36 108 4 c59 2 110 1 113 -4 3 -4 -9 -29 -26 -54 -17 -25
-26 -44 -19 -42 6 2 26 31 44 63 l34 60 -135 0 c-126 0 -137 2 -153 21 -23 29
-49 40 -100 43 l-44 3 -159 -161z m-420 -223 c16 -16 -3 -48 -29 -48 -22 0
-34 22 -25 45 6 18 37 20 54 3z"/>
<path d="M2958 4380 c-16 -25 -91 -28 -115 -4 -20 20 -62 14 -79 -11 -11 -16
-11 -25 -1 -45 16 -32 50 -37 76 -11 26 26 88 30 122 7 37 -24 79 -5 79 35 0
46 -59 67 -82 29z m63 -16 c11 -14 10 -18 -6 -30 -10 -8 -22 -14 -26 -14 -14
0 -31 30 -25 45 7 20 40 19 57 -1z m-186 -18 c0 -29 -31 -44 -50 -25 -23 23
-9 51 24 47 18 -2 26 -9 26 -22z"/>
<path d="M3104 4360 c32 -16 64 -34 69 -39 14 -14 30 -14 22 -1 -8 14 -121 70
-137 69 -7 0 14 -13 46 -29z"/>
<path d="M862 4230 c0 -14 2 -19 5 -12 2 6 2 18 0 25 -3 6 -5 1 -5 -13z"/>
<path d="M785 4153 c-3 -27 -12 -97 -21 -156 l-15 -108 46 -86 c76 -141 85
-150 85 -88 0 19 3 35 8 35 4 0 33 -25 65 -54 l57 -54 0 -69 c0 -64 2 -72 30
-98 22 -22 30 -38 30 -65 0 -41 14 -60 45 -60 28 0 45 19 45 50 0 31 -17 50
-45 50 -12 0 -35 15 -53 33 -28 29 -32 40 -32 89 0 50 2 56 19 51 15 -4 19 3
24 34 4 21 7 54 7 73 1 76 5 80 81 80 64 0 71 -2 96 -30 30 -34 53 -38 76 -12
20 22 22 53 5 70 -16 16 -63 15 -76 0 -7 -9 -35 -12 -91 -10 l-81 4 -1 61 c-1
42 -5 23 -10 -58 -5 -66 -12 -140 -16 -164 l-8 -44 -93 77 -92 76 0 -37 c0
-32 -2 -35 -14 -23 -31 34 -86 153 -86 188 0 49 20 202 30 227 7 17 11 14 28
-25 52 -116 111 -234 112 -222 0 21 -89 245 -106 263 -8 8 -14 21 -14 27 0 24
77 -36 203 -159 31 -31 57 -51 57 -46 0 6 -34 43 -76 84 -65 62 -73 73 -53 73
17 0 51 -27 109 -85 l85 -85 100 0 c88 0 103 -2 118 -20 31 -37 87 -15 87 34
0 47 -60 64 -93 26 -14 -17 -29 -20 -108 -20 l-92 0 -86 85 c-73 71 -92 85
-120 85 -38 0 -71 15 -71 33 0 7 -18 13 -44 15 l-45 2 -6 -47z m643 -180 c-3
-32 -44 -46 -54 -19 -10 26 4 46 31 46 23 0 26 -4 23 -27z m-108 -148 c18 -22
3 -57 -23 -53 -25 3 -34 32 -17 53 16 19 24 19 40 0z m-180 -419 c0 -14 -5
-28 -10 -31 -17 -11 -50 5 -50 24 0 24 9 31 37 31 18 0 23 -6 23 -24z"/>
<path d="M3007 4160 c-23 -18 -40 -20 -185 -20 -97 0 -163 4 -167 10 -9 14
-58 13 -73 -2 -18 -18 -14 -53 8 -73 26 -24 68 -13 76 20 l6 25 164 0 c101 0
164 -4 164 -10 0 -16 49 -23 65 -10 20 17 19 43 -3 63 -23 21 -24 21 -55 -3z
m53 -15 c15 -18 5 -35 -20 -35 -22 0 -34 15 -26 35 7 19 30 19 46 0z m-420
-10 c19 -23 8 -50 -20 -50 -19 0 -26 6 -28 24 -5 35 26 53 48 26z"/>
<path d="M670 3933 c0 -5 8 -13 19 -20 16 -10 22 -28 33 -107 2 -14 -5 -22
-22 -27 -14 -4 -18 -7 -8 -8 40 -2 47 9 41 62 -3 29 -10 60 -15 69 -9 19 -48
44 -48 31z"/>
<path d="M4774 3376 c-18 -14 -19 -30 -20 -342 l-2 -328 49 -51 49 -52 0 -204
0 -203 -44 -46 -44 -45 -5 -342 -4 -342 -77 -82 -76 -82 -2 -446 -3 -446 -729
-1 -728 0 -173 -177 -173 -176 -123 -4 -124 -3 130 -2 130 -2 175 175 175 175
739 -4 c748 -4 770 -5 750 -38 -3 -4 -152 -8 -332 -8 l-326 0 -31 -30 -31 -30
-213 -5 c-178 -4 -217 -7 -232 -21 -10 -9 -23 -13 -29 -9 -8 5 -1 19 21 41
l33 34 203 0 c129 0 203 4 203 10 0 6 -76 10 -208 10 l-209 0 -56 -60 c-48
-50 -55 -63 -48 -82 4 -12 6 -53 3 -90 -4 -58 -2 -68 12 -68 13 0 16 11 16 64
0 48 4 65 15 70 8 3 20 16 26 29 22 49 48 54 269 56 l205 2 27 30 c23 25 58
39 58 23 0 -3 -21 -25 -46 -50 l-45 -45 -73 2 -73 3 -67 -59 c-56 -51 -66 -64
-63 -90 2 -28 5 -30 42 -30 36 0 40 3 43 28 2 16 -2 35 -9 43 -10 13 -6 21 24
52 36 36 38 36 117 37 l80 0 45 48 c25 27 45 53 45 58 0 6 119 8 298 7 289 -3
297 -4 297 -23 0 -19 -8 -20 -287 -23 -186 -1 -288 -6 -288 -12 0 -7 101 -10
291 -10 l292 1 17 -29 c10 -17 24 -32 32 -35 9 -3 3 -15 -20 -40 -19 -19 -29
-37 -24 -41 6 -3 23 9 39 28 25 30 35 34 87 38 51 4 63 9 87 36 16 18 31 43
35 57 10 41 -6 96 -37 127 l-29 30 0 418 0 418 25 16 c30 20 32 47 5 71 -20
18 -21 18 -49 -11 -16 -16 -36 -35 -45 -42 -14 -11 -16 -60 -16 -436 l0 -423
-24 -11 c-13 -6 -27 -8 -30 -5 -3 4 -6 193 -6 421 l0 416 75 69 75 70 0 358 0
358 30 22 c16 12 27 26 23 31 -3 6 -20 -5 -39 -23 l-34 -33 0 -351 0 -351 -75
-74 -76 -75 2 -428 c1 -235 -1 -430 -4 -433 -3 -3 -15 -1 -26 6 -21 11 -21 15
-21 449 l0 438 73 78 72 78 6 91 c4 50 7 206 8 346 l1 256 45 44 45 44 0 216
0 216 -45 44 -45 44 0 324 c0 204 4 330 10 343 13 23 10 24 -16 5z m89 -2100
c9 -22 -19 -42 -37 -26 -19 15 -10 40 14 40 10 0 20 -6 23 -14z m-53 -456 c0
-366 -2 -430 -14 -430 -20 0 -29 80 -22 210 2 58 5 228 5 378 1 235 3 272 16
272 13 0 15 -54 15 -430z m13 -521 c22 -28 22 -50 -4 -83 -24 -31 -72 -35
-101 -9 -25 22 -24 77 3 104 26 26 75 20 102 -12z m-1375 -122 c4 -20 -25 -34
-40 -19 -15 15 -1 44 19 40 10 -2 19 -11 21 -21z m272 -139 c0 -25 -28 -34
-48 -15 -14 15 -14 18 3 37 21 23 45 11 45 -22z"/>
<path d="M200 2156 c0 -197 4 -306 10 -306 6 0 10 106 10 299 0 189 -4 302
-10 306 -7 4 -10 -98 -10 -299z"/>
<path d="M841 1794 c-14 -10 -21 -26 -21 -47 0 -26 -10 -43 -50 -82 -50 -49
-50 -50 -50 -114 l0 -64 -61 -64 c-34 -35 -58 -67 -55 -71 4 -4 36 23 72 60
l64 66 0 63 c0 63 0 64 51 115 30 30 57 50 65 47 23 -8 64 25 64 51 0 40 -46
63 -79 40z m54 -44 c0 -31 -33 -40 -52 -14 -16 22 1 46 31 42 15 -2 21 -10 21
-28z"/>
<path d="M1155 1161 c-45 -27 -73 -62 -89 -109 -9 -24 -11 -40 -6 -37 4 3 11
18 15 33 9 41 65 101 110 117 22 8 31 14 20 15 -11 0 -33 -8 -50 -19z"/>
<path d="M2042 1038 c-12 -12 -17 -60 -6 -71 3 -3 5 -86 4 -184 l-1 -178 -31
-32 -32 -33 -139 0 c-76 0 -136 -3 -133 -8 2 -4 68 -7 145 -7 l141 1 35 34 35
34 0 173 0 173 25 10 c57 22 54 100 -3 100 -16 0 -33 -5 -40 -12z m62 -24 c7
-19 -10 -44 -29 -44 -19 0 -36 25 -29 44 3 9 16 16 29 16 13 0 26 -7 29 -16z"/>
<path d="M1255 893 c48 -10 47 -15 -11 -49 -32 -19 -75 -49 -94 -65 -45 -39
-21 -27 53 27 31 23 74 48 94 55 l36 12 -24 13 c-13 7 -35 13 -49 12 -20 0
-21 -1 -5 -5z"/>
<path d="M2308 505 c2 -14 6 -25 8 -25 2 0 4 11 4 25 0 14 -4 25 -9 25 -4 0
-6 -11 -3 -25z"/>
<path d="M2941 255 l-174 -175 -131 0 -132 0 -168 170 -168 170 -245 0 -244 0
-69 -65 c-92 -86 -109 -87 -187 -5 l-58 60 -139 0 c-77 0 -136 -3 -133 -6 4
-4 64 -8 134 -9 l127 -2 88 -91 c62 -66 94 -92 111 -92 17 0 47 23 96 70 l71
70 203 0 202 0 108 -108 107 -107 0 -68 c0 -38 4 -67 10 -67 6 0 10 31 10 72
l0 71 -112 114 -112 113 -210 0 -209 0 -73 -70 c-76 -74 -99 -83 -129 -50 -18
20 -17 20 7 20 18 0 47 20 94 65 l68 65 237 0 237 0 126 -127 126 -128 0 -72
c0 -89 18 -97 22 -12 l3 62 34 -32 33 -31 137 0 137 0 173 175 174 175 216 0
c119 1 440 0 714 0 338 -1 497 2 497 10 0 7 -227 10 -718 10 l-718 0 -173
-175z"/>
<path d="M1320 315 c-14 -8 -34 -14 -45 -15 -12 0 -26 -5 -33 -12 -15 -15 -16
-55 -1 -64 8 -4 9 -40 4 -115 -6 -90 -5 -109 7 -109 11 0 14 23 16 101 2 96 4
102 28 121 19 15 24 27 20 44 -5 17 -1 26 14 34 26 14 42 5 115 -69 l59 -61
93 0 c82 0 95 2 112 22 19 20 32 21 186 25 l165 3 70 -72 c60 -64 69 -78 70
-110 0 -21 5 -38 10 -38 18 0 12 88 -8 102 -32 24 -115 118 -103 118 6 0 45
-32 86 -71 68 -65 75 -75 75 -110 0 -22 5 -39 10 -39 6 0 10 19 10 43 0 39 -6
47 -75 116 l-74 75 -203 -3 c-184 -2 -205 -4 -224 -22 -17 -16 -35 -19 -105
-19 l-85 0 -69 70 c-38 39 -76 70 -85 70 -8 -1 -26 -7 -40 -15z m-22 -62 c3
-17 -2 -23 -15 -23 -25 0 -43 19 -36 37 9 22 48 11 51 -14z"/>
<path d="M1810 290 c0 -6 57 -10 150 -10 93 0 150 4 150 10 0 6 -57 10 -150
10 -93 0 -150 -4 -150 -10z"/>
<path d="M1340 274 c0 -3 32 -36 71 -72 l70 -65 -2 -54 c-2 -43 1 -56 17 -68
32 -24 51 -18 26 8 -16 17 -22 36 -22 72 0 48 -2 51 -70 117 -63 61 -90 80
-90 62z"/>
<path d="M1763 187 c1 -5 6 -8 10 -8 4 1 54 1 112 1 58 0 105 4 105 9 0 6 -50
9 -115 8 -63 -1 -114 -6 -112 -10z"/>
<path d="M2492 20 c0 -14 2 -19 5 -12 2 6 2 18 0 25 -3 6 -5 1 -5 -13z"/>
</g>
</svg>
